<svg width="1920" height="363" viewBox="0 0 1920 363" fill="none" xmlns="http://www.w3.org/2000/svg">
<g opacity="0.3">
<path opacity="0.3" d="M803.959 184.987C801.828 175.214 761.13 175.917 713.081 186.492C692.675 190.756 672.709 196.907 653.441 204.866C646.677 200.546 634.499 197.166 620.425 196.246C611.256 195.493 602.026 196.153 593.058 198.2C583.747 191.347 573.2 186.355 561.996 183.5C536.955 176.601 514.358 179.318 511.524 189.579C508.69 199.841 526.693 213.76 551.734 220.679C571.282 226.055 589.227 225.586 597.594 220.288C604.433 222.203 611.459 223.377 618.549 223.788C622.408 224.053 626.277 224.105 630.141 223.944C634.207 232.877 673.987 231.978 720.765 221.696C768.891 211.279 806.168 194.722 803.959 184.987Z" fill="#A1BFA7"/>
<path opacity="0.3" d="M95.218 251.932C58.6433 256.037 21.2678 243.702 14.1529 232.385C9.25094 231.667 4.53331 230.82 1.66665e-06 229.843V187.111C9.15398 187.195 18.2938 187.848 27.3667 189.066C46.6394 191.668 65.0808 198.577 81.319 209.279L91.445 208.145C119.457 205.076 144.224 207.168 156.969 212.837C162.521 215.281 165.805 218.408 166.118 222.083C167.173 234.202 135.448 247.593 95.218 251.932Z" fill="#A1BFA7"/>
<path opacity="0.3" d="M296.679 207.011L238.289 253.769L172.021 266.944L69.8051 296.873L0 306.471V203.942C14.0938 207.031 26.0997 215.808 35.0497 228.342C36.0495 229.749 37.1996 231.333 38.9595 231.607C39.8163 231.68 40.6793 231.588 41.5006 231.333C60.4949 227.113 80.3523 233.547 93.263 248.104C101.395 240.547 110.621 234.259 120.63 229.456C130.775 224.979 142.329 223.005 153.079 225.722C152.632 220.871 154.029 216.025 156.989 212.156C159.322 208.95 162.429 206.387 166.02 204.708C173.996 201.013 183.457 201.639 191.706 204.708C187.933 197.632 191.198 188.757 195.967 182.308C203.552 172.084 216.219 164.519 228.748 166.845L247.297 160.975L296.679 207.011Z" fill="#ABCEB3"/>
<path opacity="0.3" d="M1919.73 164.197C1916.91 155.87 1893.04 153.597 1866.4 159.154C1857.74 160.893 1849.29 163.513 1841.16 166.973C1837.12 165.392 1833 164.021 1828.81 162.868C1804.28 156.085 1781.45 157.179 1777.79 165.312C1774.13 173.445 1790.99 185.544 1815.58 192.288C1838.7 198.679 1860.32 198.151 1865.78 191.154C1869.4 190.671 1873.01 190.058 1876.59 189.316C1903.23 183.804 1922.54 172.544 1919.73 164.197Z" fill="#A1BFA7"/>
<path opacity="0.3" d="M1371.03 167.9C1368.67 163.326 1356.04 162.33 1342.83 165.652C1338.82 166.622 1334.94 168.045 1331.26 169.894C1326.51 168.159 1321.54 167.113 1316.5 166.786C1311.39 166.361 1306.25 166.558 1301.19 167.372C1296.83 164.094 1291.69 162.006 1286.28 161.312C1273.41 159.142 1260.48 162.271 1257.36 168.312C1254.25 174.354 1262.15 180.979 1274.96 183.149C1283.89 184.654 1293.96 190.421 1299.65 187.606C1303.2 188.798 1305.86 187.059 1310.81 187.45C1316.36 187.9 1322.3 183.423 1326.68 182.661C1331.84 184.733 1343.88 187.998 1353.81 185.495C1367.07 182.17 1373.42 172.456 1371.03 167.9Z" fill="#A1BFA7"/>
<path opacity="0.3" d="M540.061 198.17C551.261 193.615 565.649 196.215 575.989 201.689C582.538 205.189 588.363 210.779 586.936 216.722C594.294 212.309 602.832 210.262 611.391 210.858C620.129 211.658 628.437 216.429 630.177 222.9C640.116 218.352 650.934 216.043 661.864 216.136C673.108 216.352 684.249 218.33 694.88 222C702.328 208.825 719.159 202.335 738.18 201.181C739.027 201.172 739.869 201.04 740.68 200.79C741.984 200.153 742.953 198.984 743.339 197.584C749.574 182.903 784.76 171.018 804.602 167.128L803.508 244.695L731.279 254.585L624.723 256.735L557.674 262.599L487.731 242.584L520.591 198.19L540.061 198.17Z" fill="#ABCEB3"/>
<path opacity="0.3" d="M1217.13 152.255C1228.33 146.195 1242.7 149.518 1253.06 156.927C1259.59 161.599 1265.41 169.027 1264.01 176.944C1270.93 171.529 1279.74 168.03 1288.46 169.125C1297.18 170.22 1305.49 176.534 1307.23 185.154C1316.65 179.29 1328.24 177.608 1339.29 178.762C1350.3 180.252 1361.02 183.402 1371.09 188.106C1378.9 170.296 1395.82 158.081 1415.18 156.262C1416.05 156.262 1416.91 156.089 1417.71 155.754C1419.11 154.725 1420.07 153.19 1420.37 151.473C1426.92 131.655 1443.02 116.405 1463.16 110.931L1480.54 214.202L1408.31 227.358L1301.77 230.232L1234.72 238.051L1164.8 211.465L1197.66 152.274L1217.13 152.255Z" fill="#ABCEB3"/>
<path opacity="0.3" d="M1919.97 149.058V242.887L1781.94 246.621L1690.18 257.255L1594.4 220.838L1639.36 139.971H1666.02C1681.35 131.664 1701.03 136.219 1715.21 146.345C1724.14 152.756 1732.12 162.944 1730.18 173.711C1739.64 166.302 1751.68 161.511 1763.67 162.96C1775.65 164.409 1786.97 173.125 1789.35 184.913C1802.21 176.859 1818.11 174.572 1833.2 176.175C1848.29 177.778 1862.8 182.939 1876.73 188.94C1884.97 170.225 1900.65 155.766 1919.97 149.063V149.058Z" fill="#ABCEB3"/>
<path opacity="0.3" d="M824.838 106.611V108.566C788.733 103.112 776.338 111.966 776.338 111.966V110.012C776.338 110.012 788.733 101.157 824.838 106.611Z" fill="#F4C0B5"/>
<path opacity="0.3" d="M824.838 106.611V108.566C788.733 103.112 776.338 111.966 776.338 111.966V110.012C776.338 110.012 788.733 101.157 824.838 106.611Z" fill="#8399AA"/>
<path opacity="0.3" d="M1810.21 125.159V184.506C1810.21 184.506 1804.58 178.427 1756.43 178.427V116.05L1777.54 113.626L1803.13 119.881L1810.21 125.159Z" fill="#F4C0B5"/>
<path opacity="0.3" d="M1765.99 138.121L1780.74 138.942L1800.9 141.249L1807.84 143.282L1810.22 147.133V160.523L1786.53 156.946L1776.68 154.287L1768.7 153.095L1765.98 147.778L1765.99 138.121Z" fill="#9FB0C4"/>
<path opacity="0.3" d="M1767.74 191.653C1767.74 191.653 1810.57 192.653 1810.57 187.997C1810.57 183.341 1794.7 181.018 1794.7 181.018L1775.95 178.028H1767.15L1767.74 191.712" fill="#C8CACC"/>
<path opacity="0.3" d="M1449.54 179.133V201.832L1760.1 205.663L1759.94 178.023L1754.29 174.876L1726.71 171.416L1648.29 165.019L1571.68 166.641L1499.04 169.241L1449.54 179.132" fill="#C8CACC"/>
<path opacity="0.3" d="M1278.87 226.957V124.705C1278.87 124.705 1272.56 116.705 1230.37 120.405V222.679C1272.33 219.004 1278.8 226.882 1278.87 226.957Z" fill="#F4C0B5"/>
<path opacity="0.3" d="M1278.87 138.644V155.12C1278.2 154.465 1277.41 153.941 1276.55 153.576L1275.53 153.126C1271.99 151.804 1268.29 150.956 1264.52 150.604L1263.51 150.487C1252.48 149.538 1241.38 149.649 1230.37 150.82V134.344C1241.38 133.174 1252.48 133.063 1263.51 134.012L1264.52 134.129C1268.29 134.481 1271.99 135.329 1275.53 136.651L1276.55 137.12C1277.42 137.466 1278.21 137.985 1278.87 138.645L1278.87 138.644Z" fill="#C1CDD6"/>
<path opacity="0.3" d="M1230.37 163.415V179.894C1272.56 176.199 1278.87 184.194 1278.87 184.194V167.716C1278.87 167.716 1272.56 159.721 1230.37 163.415Z" fill="#C1CDD6"/>
<path opacity="0.3" d="M1229.32 192.46V208.939C1271.5 205.264 1278.83 212.849 1278.83 212.849V196.369C1278.83 196.369 1271.5 188.765 1229.32 192.46Z" fill="#C1CDD6"/>
<path opacity="0.3" d="M1404.53 16.0605L1410.52 27.9843L1426.29 34.4942L1491.76 29.6854H1537.73L1574.6 25.2673L1578.71 38.4822L1582.62 40.3391L1588.25 25.1703L1591.08 12.0156L1567.21 11.0755H1449.71L1404.53 16.0605Z" fill="#70615C"/>
<path opacity="0.3" d="M1594.33 9.53896V2.5999L1494.91 0L1396.16 4.76996V11.9999L1494.73 7.07394L1594.33 9.5368" fill="black"/>
<path opacity="0.3" d="M1410.52 34.1254L1396.16 12.0166L1494.73 7.09064L1594.33 9.55373L1581.76 52.2701V38.4703L1588.04 13.6836L1494.74 12.0216L1404.54 16.0677L1410.52 24.5905V34.1294" fill="#7F6F69"/>
<path opacity="0.3" d="M1454.35 35.0362V17.8145H1536.45V36.8933L1503.61 40.3531L1460.45 38.4963L1454.35 35.0362" fill="#9FB0C4"/>
<path opacity="0.3" d="M1529.18 18.8107V38.4756L1554.34 43.6754H1566.34L1565.46 26.8446L1564.64 19.4006L1529.18 18.8107Z" fill="#E5DBDA"/>
<path opacity="0.3" d="M1421.08 21.3892H1455.68V35.561L1447.01 45.2379H1429.37L1419.54 44.378L1418.25 34.5492L1421.08 21.3932" fill="#E5DBDA"/>
<path opacity="0.3" d="M1421.59 17.1113H1413.03V40.4122H1421.59V17.1113Z" fill="#F9F0EF"/>
<path opacity="0.3" d="M1472.52 15.1775H1463.96V38.4784H1472.52V15.1775Z" fill="#F9F0EF"/>
<path opacity="0.3" d="M1527.6 15.1775H1519.04V38.4784H1527.6V15.1775Z" fill="#F9F0EF"/>
<path opacity="0.3" d="M1573.19 15.1775H1564.63V38.4784H1573.19V15.1775Z" fill="#F9F0EF"/>
<path opacity="0.3" d="M1408.87 68.3304V40.1819L1581.91 38.4419V66.0044L1493.73 72.8464H1435.61L1408.87 68.3304Z" fill="#FFD8D2"/>
<path opacity="0.3" d="M1433.66 67.4189V38.3511L1492.21 28.7142V34.7742H1497.74V28.7142L1557.05 35.8302V63.295L1496.49 69.8049L1473.34 72.8339L1433.66 67.4189Z" fill="#F9F0EF"/>
<path opacity="0.3" d="M1399.96 103.905L1405.96 110.415L1447.33 114.051L1454.48 102.068L1450.05 94.6983L1399.96 103.905Z" fill="#AFAFAF"/>
<path opacity="0.3" d="M1492.79 63.3953V175.913L1733.89 179.236V67.8131C1733.89 67.8131 1526.02 59.3292 1492.79 63.3953Z" fill="#C1CDD6"/>
<path opacity="0.3" d="M776.338 239.553V110.773C776.338 110.773 788.731 101.919 824.838 107.374V235.155L805.29 245.985L776.338 239.553Z" fill="#F4C0B5"/>
<path opacity="0.3" d="M824.835 120.834V137.313C821.016 136.978 817.19 136.717 813.36 136.531L812.422 136.472C806.559 136.237 801.711 136.272 797.586 136.472H796.57C792.541 136.678 788.534 137.201 784.587 138.036L783.571 138.29C777.707 139.776 776.397 141.515 776.397 141.515V125.057C776.397 125.057 777.785 123.298 783.571 121.832L784.079 121.695L784.587 121.578C788.53 120.723 792.539 120.2 796.57 120.014H797.586C801.711 119.799 806.616 119.76 812.422 120.014H813.44C816.86 120.147 820.671 120.384 824.835 120.834Z" fill="#C1CDD6"/>
<path opacity="0.3" d="M824.86 149.818V166.296C821.041 165.957 817.215 165.703 813.385 165.534H812.368C806.504 165.299 801.656 165.319 797.531 165.534H796.512C792.481 165.721 788.473 166.244 784.529 167.098L783.512 167.352C777.648 168.838 776.338 170.577 776.338 170.577V154.118C776.338 154.118 777.726 152.378 783.512 150.894L784.528 150.64C788.472 149.784 792.481 149.26 796.512 149.072H797.528C801.653 148.858 806.559 148.837 812.365 149.072H813.382C816.885 149.212 820.697 149.447 824.86 149.818Z" fill="#C1CDD6"/>
<path opacity="0.3" d="M824.838 178.82V195.299C782.653 191.624 776.338 199.599 776.338 199.599V183.12C776.338 183.12 782.653 175.145 824.838 178.82Z" fill="#C1CDD6"/>
<path opacity="0.3" d="M824.838 207.893V224.372C782.653 220.677 776.338 228.653 776.338 228.653V212.193C776.338 212.193 782.653 204.199 824.838 207.893Z" fill="#C1CDD6"/>
<path opacity="0.3" d="M998.668 164.67L1017.53 166.625L1051.56 166.725L1071.15 165.433L1042.79 160.096L1014.93 162.833L998.668 164.67Z" fill="#A9BAC4"/>
<path opacity="0.3" d="M1071.09 149.416V165.582C1071.09 165.582 1029.32 161.672 998.61 164.82L998.61 148.673C998.61 148.673 1027.4 142.926 1071.09 149.416Z" fill="#C1CDD6"/>
<path opacity="0.3" d="M436.439 129.159L430.418 136.646L418.924 136.216V141.216L409.658 140.923L409.558 129.155L436.439 129.159Z" fill="#7F6F69"/>
<path opacity="0.3" d="M282.747 110.911L336.679 110.696L338.616 253.254L285.837 256.03L282.747 110.911Z" fill="#F4C0B5"/>
<path opacity="0.3" d="M315.35 99.8583L322.583 90.0254H326.766L336.266 75.8336L353.292 71.8847L370.025 76.0676L371.295 73.8978L353.296 69.8517L335.152 73.4106L326.042 87.5025L321.859 87.3465L313.102 99.8583H315.35Z" fill="#70615C"/>
<path opacity="0.3" d="M326.798 89.7759H322.537V99.6088H326.798V89.7759Z" fill="black"/>
<path opacity="0.3" d="M336.256 75.7703L336.549 101.652L326.834 99.7951L326.756 89.9602L336.256 75.7703Z" fill="#7F6F69"/>
<path opacity="0.3" d="M322.562 89.7759L315.329 99.6057H322.562V89.7759Z" fill="#7F6F69"/>
<path opacity="0.3" d="M336.52 101.185L326.804 99.3277H313.065L270.466 101.128L264.053 122.747H265.793L271.542 104.527H336.598L336.52 101.185Z" fill="#70615C"/>
<path opacity="0.3" d="M336.61 104.543V108.983H271.984L271.554 104.546L336.61 104.543Z" fill="#B29D93"/>
<path opacity="0.3" d="M271.989 108.923L267.689 122.703H265.811L271.558 104.484L271.989 108.923Z" fill="black"/>
<path opacity="0.3" d="M243.602 122.416H281.017V125.778H244.692L243.602 122.416Z" fill="#B29D93"/>
<path opacity="0.3" d="M243.602 122.358L243.133 136.589H244.363L244.695 125.72L243.602 122.358Z" fill="black"/>
<path opacity="0.3" d="M271.987 108.825L267.687 122.606H280.998V116.683L282.718 112.183L336.651 111.968L336.612 108.821L271.987 108.825Z" fill="black"/>
<path opacity="0.3" d="M335.719 140.582H286.615V148.929H335.719V140.582Z" fill="#B29D93"/>
<path opacity="0.3" d="M286.635 140.582L285.501 142.108V148.168L286.635 148.93V140.582Z" fill="black"/>
<path opacity="0.3" d="M336.891 176.915H287.787V185.262H336.891V176.915Z" fill="#B29D93"/>
<path opacity="0.3" d="M287.749 176.915L286.615 178.44V184.519L287.749 185.262V176.915Z" fill="black"/>
<path opacity="0.3" d="M338.004 210.961H288.9V219.308H338.004V210.961Z" fill="#B29D93"/>
<path opacity="0.3" d="M288.921 210.961L287.787 212.486V218.546L288.921 219.308V210.961Z" fill="black"/>
<path opacity="0.3" d="M282.709 111.106L284.879 186.506L285.485 223.353V241.142H284.239L280.989 124.887V115.602L282.709 111.106Z" fill="#F4C0B5"/>
<path opacity="0.3" d="M370.009 74.6206L372.492 270.96L338.029 270.314L336.249 74.3866L353.275 70.4377L370.009 74.6206Z" fill="black"/>
<path opacity="0.3" d="M369.218 269.312L341.186 268.784V116.662C341.167 116.349 341.167 116.036 341.186 115.724C341.17 115.382 341.204 115.039 341.286 114.707C342.041 110.161 345.259 106.392 349.629 104.934C349.962 104.816 350.301 104.718 350.645 104.641C351.594 104.42 352.564 104.309 353.538 104.309C354.964 104.307 356.379 104.552 357.721 105.032C358.07 105.15 358.41 105.294 358.738 105.462C362.485 107.17 365.127 110.658 365.756 114.728C365.822 115.064 365.868 115.403 365.893 115.745V116.371L366.129 126.808V127.823L369.218 269.312Z" fill="#C1CDD6"/>
<path opacity="0.3" d="M363.616 105.832L423.96 106.751V111.032L363.654 109.664L363.616 105.832Z" fill="#B29D93"/>
<path opacity="0.3" d="M363.674 111.224L410.081 112.224L412.973 275.097L365.707 270.542L363.674 111.224Z" fill="#F4C0B5"/>
<path opacity="0.3" d="M423.918 110.895L410.218 120.865L410.042 113.847L363.636 112.847L363.616 109.524L423.918 110.895Z" fill="black"/>
<path opacity="0.3" d="M363.498 101.261H385.49L425.27 104.527L423.921 106.833L363.576 105.911L363.498 101.261Z" fill="#70615C"/>
<path opacity="0.3" d="M244.364 136.567L281.27 135.355L281.016 125.698H244.697L244.364 136.567Z" fill="#7F6F69"/>
<path opacity="0.3" d="M409.5 124.35L427.6 124.78L437.784 125.855L437.51 126.578L409.557 126.734L409.5 124.35Z" fill="#70615C"/>
<path opacity="0.3" d="M437.512 126.519L436.437 129.219L409.597 129.318L409.558 126.679L437.512 126.518V126.519Z" fill="#B29D93"/>
<path opacity="0.3" d="M123.848 140.39L244.322 136.344L258.279 135.894L262.267 141.954L115.326 147.764L123.848 140.39Z" fill="#B29D93"/>
<path opacity="0.3" d="M418.29 136.07L534.873 140.27L558.135 147.933L434.846 144.023L418.29 136.07Z" fill="#B29D93"/>
<path opacity="0.3" d="M558.131 147.877L549.764 156.83V153.663L439.906 150.32L435.996 152.353L430.21 149.167L428.49 143.967L418.29 138.474V136.012L434.847 143.967L558.131 147.877Z" fill="#7F6F69"/>
<path opacity="0.3" d="M549.58 152.367V258.023L436.691 261.053L435.811 151.054L439.721 149.021L549.58 152.367Z" fill="#F4C0B5"/>
<path opacity="0.3" d="M115.326 147.62L121.716 157.101V154.284L257.691 149.495V152.975L261.601 147.619L262.266 141.813L115.326 147.62Z" fill="#7F6F69"/>
<path opacity="0.3" d="M121.772 152.755V155.57L123.179 193.181V279.367L259.232 272.839L257.747 151.446V147.966L121.772 152.755Z" fill="#F4C0B5"/>
<path opacity="0.3" d="M430.226 129.155H428.428V136.642H430.226V129.155Z" fill="black"/>
<path opacity="0.3" d="M250.282 125.698H252.12L252.062 136.313L250.282 136.372V125.698Z" fill="black"/>
<path opacity="0.3" d="M257.725 154.822H281.807L282.081 164.811H257.862L257.725 154.822Z" fill="black"/>
<path opacity="0.3" d="M258.193 188.713L282.745 188.283L283.058 197.607H258.31L258.193 188.713Z" fill="black"/>
<path opacity="0.3" d="M410.086 154.822H425.47V164.577L410.262 164.753L410.086 154.822Z" fill="black"/>
<path opacity="0.3" d="M410.379 188.026L427.189 187.756V195.77L410.554 196.045L410.379 188.025V188.026Z" fill="black"/>
<path opacity="0.3" d="M418.798 137.301V153.956H425.308V163.711H418.798V187.578L427.047 187.461V195.476H418.798L418.29 257.13L437.39 261.175L436.509 151.177L430.724 147.991L429.004 142.791L418.798 137.301Z" fill="#E2AFA6"/>
<path opacity="0.3" d="M418.798 137.301V153.956H425.308V163.711H418.798V187.578L427.047 187.461V195.476H418.798L418.29 257.13L437.39 261.175L436.509 151.177L430.724 147.991L429.004 142.791L418.798 137.301Z" fill="black"/>
<path opacity="0.3" d="M409.851 140.582L418.98 140.993V155.106H410.105L409.851 140.582Z" fill="#D3A9A3"/>
<path opacity="0.3" d="M410.32 164.491L419.02 164.316V188.435L410.458 188.335L410.32 164.491Z" fill="#D3A9A3"/>
<path opacity="0.3" d="M410.848 195.061L418.979 194.846L418.451 264.789L411.752 263.909L410.848 195.061Z" fill="#D3A9A3"/>
<path opacity="0.3" d="M258.312 135.836L262.3 141.896L261.635 147.702L257.725 153.058L257.745 155.111H281.828L281.26 135.074L258.312 135.836Z" fill="#E2AFA6"/>
<path opacity="0.3" d="M257.9 164.55H282.12L282.746 188.614L258.194 189.044L257.9 164.55Z" fill="#E2AFA6"/>
<path opacity="0.3" d="M258.311 196.663H283.058L284.29 240.663L259.191 269.026L258.311 196.663Z" fill="#E2AFA6"/>
<path opacity="0.3" d="M412.169 140.582H367.073V148.929H412.169V140.582Z" fill="#B29D93"/>
<path opacity="0.3" d="M373.891 140.582L372.757 142.108V148.168L373.891 148.93V140.582Z" fill="black"/>
<path opacity="0.3" d="M412.169 175.918H367.073V184.265H412.169V175.918Z" fill="#B29D93"/>
<path opacity="0.3" d="M373.891 175.918L372.757 177.443V183.523L373.891 184.265V175.918Z" fill="black"/>
<path opacity="0.3" d="M412.169 210.961H367.073V219.308H412.169V210.961Z" fill="#B29D93"/>
<path opacity="0.3" d="M373.891 210.961L372.757 212.486V218.546L373.891 219.308V210.961Z" fill="black"/>
<path opacity="0.3" d="M557.928 147.774L549.561 156.727V153.56L439.699 150.217L435.789 152.25L434.639 143.864L557.928 147.774Z" fill="black"/>
<path opacity="0.3" d="M115.326 147.679L121.716 154.343L257.691 149.554L262.265 141.872L115.326 147.679H115.326Z" fill="black"/>
<path opacity="0.3" d="M863.067 79.5457L863.243 82.0865L882.243 80.4056L895.942 88.9675L898.113 87.4625L882.513 77.7628L863.067 79.5457Z" fill="#B29D93"/>
<path opacity="0.3" d="M863.738 79.5208L828.258 88.9428L829.92 90.2527L863.914 82.0619L863.738 79.5208Z" fill="black"/>
<path opacity="0.3" d="M863.301 81.0262L864.787 231.447L869.146 229.825L867.387 87.9069L892.976 93.0479V226.462L896.006 225.094V87.9069L882.306 79.345L863.301 81.0262Z" fill="#FFD8D2"/>
<path opacity="0.3" d="M892.933 92.9244V225.303L869.105 229.703L868.773 202.981L868.773 201.925L868.617 190.294L868.597 189.258L868.46 177.627V176.591L868.304 164.961L868.284 163.924L868.147 152.294L868.127 151.258V151.238L867.99 139.626L867.97 138.57L867.834 126.933L867.814 125.897L867.677 114.266L867.657 113.23L867.345 87.7834L892.933 92.9244Z" fill="#9FB0C4"/>
<path opacity="0.3" d="M829.899 89.1767V235.746L865.379 231.406L863.893 80.9858L829.899 89.1767Z" fill="#F4C0B5"/>
<path opacity="0.3" d="M829.899 107.792L864.069 99.1521V98.6831L829.899 107.421V107.792Z" fill="#DDA59B"/>
<path opacity="0.3" d="M829.899 127.131L864.265 118.452L864.245 117.963L829.899 126.74V127.131Z" fill="#DDA59B"/>
<path opacity="0.3" d="M829.899 146.508L864.441 137.77V137.301L829.899 146.117V146.508Z" fill="#DDA59B"/>
<path opacity="0.3" d="M829.899 165.826L864.699 157.049L864.64 156.58L829.899 165.455V165.826Z" fill="#DDA59B"/>
<path opacity="0.3" d="M829.899 185.223L864.851 176.407V175.918L829.899 184.851V185.223Z" fill="#DDA59B"/>
<path opacity="0.3" d="M829.899 204.601L865.046 195.726V195.257L829.899 204.226V204.601Z" fill="#DDA59B"/>
<path opacity="0.3" d="M829.899 223.938L865.222 215.005V214.536L829.899 223.567V223.938Z" fill="#636363"/>
<path opacity="0.3" d="M894.594 97.6283L896.275 97.9412V181.117L985.668 187.881V172.145L1019.06 176.7V208.582L989.538 207.682L922.059 217.006L894.594 224.436V97.6283Z" fill="#FFD8D2"/>
<path opacity="0.3" d="M896.528 181.487V97.2181L985.921 117.646V188.253L896.528 181.487Z" fill="#9FB0C4"/>
<path opacity="0.3" d="M985.015 162.551L999.538 164.819V148.672L985.015 144.977L985.014 162.551H985.015Z" fill="#FFD8D2"/>
<path opacity="0.3" d="M985.014 134.989L998.952 137.667V120.602L985.014 117.728V134.989Z" fill="#FFD8D2"/>
<path opacity="0.3" d="M984.839 162.265L999.362 164.533L1018.23 166.484V176.336L984.839 171.784V162.265Z" fill="#9FB0C4"/>
<path opacity="0.3" d="M982.886 134.662L996.824 137.34C996.824 137.34 1049.76 134.916 1069.89 139.295L1089.44 138.083L1089.58 119.962L1202.78 110.403V184.685L1089.67 190.119V174.989L1050.21 176.396V167.073L1089.67 164.472V148.424L1069.74 149.617C1069.74 149.617 1031.34 143.987 997.311 148.874L982.788 145.179L982.886 134.662Z" fill="#9FB0C4"/>
<path opacity="0.3" d="M998.082 137.619V120.554C998.082 120.554 1043.28 114.983 1071.15 123.604V139.633C1071.15 139.633 1053.17 135.586 998.082 137.619Z" fill="#C1CDD6"/>
<path opacity="0.3" d="M1070.4 125.777L1090.14 124.585L1090.04 138.365L1070.4 139.577V125.777Z" fill="#F4C0B5"/>
<path opacity="0.3" d="M1070.34 149.392L1090.28 148.2V164.25L1070.4 165.56L1070.34 149.392Z" fill="#F4C0B5"/>
<path opacity="0.3" d="M1017.89 166.132V207.515L1023.42 207.867V166.132H1017.89Z" fill="#F9F0EF"/>
<path opacity="0.3" d="M1051.39 166.249H1047.48V207.691H1051.39V166.249Z" fill="#F9F0EF"/>
<path opacity="0.3" d="M1023.1 176.336H1047.72V166.582L1023.1 166.484V176.336Z" fill="#97A7B7"/>
<path opacity="0.3" d="M1070.76 165.253V175.203L1051.17 175.868V166.543L1070.76 165.253Z" fill="#97A7B7"/>
<path opacity="0.3" d="M999.196 164.491V173.737L1018.06 176.298V166.446L999.196 164.491Z" fill="#97A7B7"/>
<path opacity="0.3" d="M1023.1 190.217H1047.72V208.495C1047.72 208.495 1027.5 207.733 1023.1 208.045V190.217Z" fill="#97A7B7"/>
<path opacity="0.3" d="M1023.1 176.153H1047.72V184.401C1047.72 184.401 1027.5 183.953 1023.1 184.264V176.153Z" fill="#C1CDD6"/>
<path opacity="0.3" d="M1049.71 175.509L1089.18 174.102V189.291L1202.28 183.857V207.314H1049.81V191.148L1066.29 191.559V185.382C1066.29 185.382 1053.6 184.366 1049.81 184.268L1049.71 175.509Z" fill="#F4C0B5"/>
<path opacity="0.3" d="M1088.91 189.377L1090.69 190.784L1202.02 186.347V183.947L1088.91 189.377Z" fill="#8399AA"/>
<path opacity="0.3" d="M1201.07 110.286L1210.05 115.623V203.51L1201.07 207.987V110.286Z" fill="#FFD8D2"/>
<path opacity="0.3" d="M1197.73 110.704V105.227L1228.09 104.074L1228.09 203.456L1209.89 202.85V115.783L1197.73 110.704Z" fill="#9FB0C4"/>
<path opacity="0.3" d="M1194.86 111.1V100.035L1212.91 93.8192L1231.69 98.5892V202.408L1228.08 202.701V104.219L1197.72 105.369V110.842L1194.86 111.1Z" fill="#F4C0B5"/>
<path opacity="0.3" d="M1194.86 100.761L1193.54 101.289L1192.69 99.2556L1212.91 91.8855L1232.81 96.9686L1231.69 99.3146L1212.91 94.5447L1194.86 100.761Z" fill="black"/>
<path opacity="0.3" d="M1231.25 99.2125L1245.7 108.812L1246.62 106.428L1232.37 96.8665L1231.25 99.2125Z" fill="#B29D93"/>
<path opacity="0.3" d="M1245.7 108.105L1245.7 203.304L1231.25 202.639V98.5073L1245.7 108.105H1245.7Z" fill="#FFD8D2"/>
<path opacity="0.3" d="M822.34 110.874L830.218 108.704V235.256H822.34V110.874Z" fill="#9FB0C4"/>
<path opacity="0.3" d="M1810.17 183.478H1799.91V211.53H1810.17V183.478Z" fill="#D9DADB"/>
<path opacity="0.3" d="M1767.75 177.501H1757.49V205.552H1767.75V177.501Z" fill="#D9DADB"/>
<path opacity="0.3" d="M1353.9 154.962V179.534C1370.73 176.955 1387.71 175.551 1404.73 175.334C1426.23 175.334 1458.37 178.657 1458.37 178.657V154.962C1458.37 154.962 1437.84 151.327 1404.16 151.306C1370.48 151.286 1353.9 154.962 1353.9 154.962Z" fill="#FFD8D2"/>
<path opacity="0.3" d="M1353.9 136.386V152.18C1370.73 149.6 1387.71 148.197 1404.73 147.98C1426.23 147.98 1458.37 151.323 1458.37 151.323V136.386C1458.37 136.386 1437.84 132.75 1404.16 132.73C1370.48 132.71 1353.9 136.386 1353.9 136.386Z" fill="#C1CDD6"/>
<path opacity="0.3" d="M1353.9 182.27V201.818H1458.42V182.27C1458.42 182.27 1437.9 178.653 1404.22 178.614C1370.55 178.575 1353.9 182.27 1353.9 182.27Z" fill="#C1CDD6"/>
<path opacity="0.3" d="M1405.8 108.528C1366.2 108.528 1353.9 116.034 1353.9 116.034V133.628C1370.73 131.059 1387.71 129.661 1404.73 129.445C1426.23 129.445 1458.37 133.628 1458.37 133.628V116.034C1458.37 116.034 1445.41 108.528 1405.8 108.528Z" fill="#FFD8D2"/>
<path opacity="0.3" d="M1353.9 116.113V118.888C1353.9 118.888 1372.28 112.36 1406.18 112.398C1440.07 112.438 1458.43 118.888 1458.43 118.888V116.113C1458.43 116.113 1446.7 108.704 1406.18 108.704C1365.05 108.704 1353.9 116.112 1353.9 116.112V116.113Z" fill="#F9F0EF"/>
<path opacity="0.3" d="M1399.7 131.499H1388.42V149.933H1399.7V131.499Z" fill="#E8E9EA"/>
<path opacity="0.3" d="M1399.7 176.387H1388.42V201.76H1399.7V176.387Z" fill="#E8E9EA"/>
<path opacity="0.3" d="M1733.91 67.7263L1733.87 62.2922L1756.45 63.3823V179.321L1733.91 179.243V67.7263Z" fill="#C1CDD6"/>
<path opacity="0.3" d="M1733.86 69.3758L1733.74 52.799L1725.72 55.3988V68.8087L1733.86 69.3758Z" fill="#F4C0B5"/>
<path opacity="0.3" d="M1756.43 112.277V116.499C1756.43 116.499 1787.08 113.547 1810.21 125.608V121.386C1810.21 121.386 1793.94 111.378 1756.43 112.277Z" fill="#F9F0EF"/>
<path opacity="0.3" d="M1756.43 175.977V180.219C1756.43 180.219 1793.14 179.535 1810.58 188.038V183.816C1810.58 183.816 1799.81 175.92 1756.43 175.977Z" fill="#F9F0EF"/>
<path opacity="0.3" d="M1756.43 114.277V54.264L1763.8 57.4701V114.277H1756.43Z" fill="#F4C0B5"/>
<path opacity="0.3" d="M1733.75 52.8013L1744.85 49.2244L1756.41 54.2871V62.5951L1733.81 61.1882L1733.75 52.8013Z" fill="#E2AFA6"/>
<path opacity="0.3" d="M1733.81 61.1788L1733.83 63.9347L1756.41 65.0298V62.5857L1733.81 61.1788Z" fill="#F9F0EF"/>
<path opacity="0.3" d="M1763.77 57.516L1766.44 54.8381L1745.14 45.0051L1723.38 52.0232L1725.73 55.385L1744.84 49.2082L1763.77 57.516Z" fill="black"/>
<path opacity="0.3" d="M1723.41 52.0372L1705.74 67.4999L1710.78 67.8129L1725.76 55.4L1723.41 52.0372Z" fill="#7F6F69"/>
<path opacity="0.3" d="M1725.75 55.3774V68.7873L1710.78 67.7874L1725.75 55.3774Z" fill="#E2AFA6"/>
<path opacity="0.3" d="M1399.32 67.0805L1500.79 63.4056L1500.79 174.281L1457.57 175.297L1457.57 116.498C1453.78 114.726 1449.79 113.413 1445.68 112.588V102.814L1399.32 104.143V67.0805Z" fill="#D9DADB"/>
<path opacity="0.3" d="M1041.29 155.53C1040.92 157.975 1038.8 159.801 1036.33 159.801C1033.57 159.801 1031.3 157.533 1031.3 154.777C1031.3 152.021 1033.57 149.753 1036.33 149.753C1037.78 149.753 1039.17 150.385 1040.12 151.484L1039.06 153.284C1038.52 152.295 1037.47 151.679 1036.34 151.679C1034.64 151.679 1033.24 153.082 1033.24 154.787C1033.24 156.492 1034.64 157.895 1036.34 157.895C1036.6 157.895 1036.86 157.863 1037.11 157.799C1038.01 157.581 1038.76 156.98 1039.18 156.158L1041.14 152.933L1042.04 151.408C1041.76 150.949 1041.42 150.528 1041.04 150.157C1039.82 148.978 1038.2 148.318 1036.51 148.318C1032.95 148.318 1030.02 151.247 1030.02 154.808C1030.02 158.368 1032.95 161.297 1036.51 161.297C1039.94 161.297 1042.81 158.571 1042.99 155.142L1041.29 155.53ZM1036.72 156.351C1036.6 156.378 1036.48 156.392 1036.35 156.392C1035.46 156.392 1034.73 155.66 1034.73 154.77C1034.73 153.881 1035.46 153.149 1036.35 153.149C1037.1 153.149 1037.76 153.667 1037.93 154.396C1037.97 154.543 1037.99 154.695 1037.99 154.848C1037.99 155.581 1037.5 156.23 1036.8 156.429L1036.72 156.351Z" fill="#CE93AE"/>
<path opacity="0.3" d="M1733.71 69.1485H1709.43V94.0333H1733.71V69.1485Z" fill="#F4C0B5"/>
<path opacity="0.3" d="M1733.72 89.9516H1719.75V111.61H1733.72V89.9516Z" fill="#F4C0B5"/>
<path opacity="0.3" d="M1733.71 135.834L1709.43 134.818V111.106H1733.71V135.834Z" fill="#F4C0B5"/>
<path opacity="0.3" d="M1733.72 178.849H1709.44L1703.51 153.299L1733.71 152.009L1733.72 178.849Z" fill="#F4C0B5"/>
<path opacity="0.3" d="M1768.57 155.266L1756.43 154.914V136.832H1768.57V155.266Z" fill="#97A7B7"/>
<path opacity="0.3" d="M1733.72 132.085H1719.75V153.744H1733.72V132.085Z" fill="#F4C0B5"/>
<path opacity="0.3" d="M1512.37 86.963H1500.23V108.622H1512.37V86.963Z" fill="#F4C0B5"/>
<path opacity="0.3" d="M1710.41 134.097L1492.79 129.718V108.059H1590.49L1713.66 110.952L1710.41 134.097Z" fill="#F4C0B5"/>
<path opacity="0.3" d="M1709.46 178.93L1492.79 175.86V149.021L1707.28 153.38L1709.46 178.93Z" fill="#F4C0B5"/>
<path opacity="0.3" d="M1512.37 129.097H1500.23V150.756H1512.37V129.097Z" fill="#F4C0B5"/>
<path opacity="0.3" d="M1526.8 55.6704H1464.78V66.3433H1526.8V55.6704Z" fill="#9FB0C4"/>
<path opacity="0.3" d="M1709.46 93.0801L1492.79 87.4502V62.7025H1517.07L1718.27 68.2344L1709.46 93.0801Z" fill="#F4C0B5"/>
<path opacity="0.3" d="M1497.37 139.117H1482.88V153.192H1497.37V139.117Z" fill="#C1CDD6"/>
<path opacity="0.3" d="M1475.45 139.117H1460.97V153.192H1475.45V139.117Z" fill="#C1CDD6"/>
<path opacity="0.3" d="M1497.37 106.36H1482.88V120.435H1497.37V106.36Z" fill="#C1CDD6"/>
<path opacity="0.3" d="M1475.45 106.36H1460.97V120.435H1475.45V106.36Z" fill="#C1CDD6"/>
<path opacity="0.3" d="M1068.08 185.446V191.623C1068.08 191.623 1031.23 190.333 1001.31 191.623V185.446C1023.51 183.291 1045.87 183.291 1068.08 185.446Z" fill="#9FB0C4"/>
<path opacity="0.3" d="M0.761807 281.183L92.6959 260.462V256.611L0.761807 271.507V281.183Z" fill="#E2AFA6"/>
<path opacity="0.3" d="M92.6959 258.897L0.761807 279.618V322.975L82.9798 278.796L92.6947 273.577L92.6959 258.897Z" fill="#FFD8D2"/>
<g opacity="0.3">
<g opacity="0.3">
<g opacity="0.3">
<path opacity="0.3" d="M462.82 163.085H444.66V180.285H462.82V163.085Z" fill="#C1CDD6"/>
</g>
</g>
</g>
<g opacity="0.3">
<g opacity="0.3">
<g opacity="0.3">
<path opacity="0.3" d="M490.069 163.085H471.909V180.285H490.069V163.085Z" fill="#C1CDD6"/>
</g>
</g>
</g>
<g opacity="0.3">
<g opacity="0.3">
<g opacity="0.3">
<path opacity="0.3" d="M517.259 163.085H499.1V180.285H517.259V163.085Z" fill="#C1CDD6"/>
</g>
</g>
</g>
<g opacity="0.3">
<g opacity="0.3">
<g opacity="0.3">
<path opacity="0.3" d="M544.45 163.085H526.29V180.285H544.45V163.085Z" fill="#C1CDD6"/>
</g>
</g>
</g>
<g opacity="0.3">
<g opacity="0.3">
<path opacity="0.3" d="M462.82 184.064H444.66V201.264H462.82V184.064Z" fill="#C1CDD6"/>
</g>
</g>
<g opacity="0.3">
<g opacity="0.3">
<g opacity="0.3">
<path opacity="0.3" d="M490.069 184.064H471.909V201.264H490.069V184.064Z" fill="#C1CDD6"/>
</g>
</g>
</g>
<g opacity="0.3">
<g opacity="0.3">
<g opacity="0.3">
<path opacity="0.3" d="M517.259 184.064H499.1V201.264H517.259V184.064Z" fill="#C1CDD6"/>
</g>
</g>
</g>
<g opacity="0.3">
<g opacity="0.3">
<g opacity="0.3">
<path opacity="0.3" d="M544.45 184.064H526.29V201.264H544.45V184.064Z" fill="#C1CDD6"/>
</g>
</g>
</g>
<g opacity="0.3">
<g opacity="0.3">
<path opacity="0.3" d="M462.82 205.043H444.66V222.243H462.82V205.043Z" fill="#C1CDD6"/>
</g>
</g>
<g opacity="0.3">
<g opacity="0.3">
<g opacity="0.3">
<path opacity="0.3" d="M490.069 205.043H471.909V222.243H490.069V205.043Z" fill="#C1CDD6"/>
</g>
</g>
</g>
<g opacity="0.3">
<g opacity="0.3">
<g opacity="0.3">
<path opacity="0.3" d="M517.259 205.043H499.1V222.243H517.259V205.043Z" fill="#C1CDD6"/>
</g>
</g>
</g>
<g opacity="0.3">
<g opacity="0.3">
<g opacity="0.3">
<path opacity="0.3" d="M544.45 205.043H526.29V222.243H544.45V205.043Z" fill="#C1CDD6"/>
</g>
</g>
</g>
<g opacity="0.3">
<g opacity="0.3">
<g opacity="0.3">
<path opacity="0.3" d="M462.82 226.022H444.66V243.222H462.82V226.022Z" fill="#C1CDD6"/>
</g>
</g>
</g>
<g opacity="0.3">
<g opacity="0.3">
<g opacity="0.3">
<path opacity="0.3" d="M490.069 226.022H471.909V243.222H490.069V226.022Z" fill="#C1CDD6"/>
</g>
</g>
</g>
<g opacity="0.3">
<g opacity="0.3">
<g opacity="0.3">
<path opacity="0.3" d="M517.259 226.022H499.1V243.222H517.259V226.022Z" fill="#C1CDD6"/>
</g>
</g>
</g>
<g opacity="0.3">
<g opacity="0.3">
<g opacity="0.3">
<path opacity="0.3" d="M544.45 226.022H526.29V243.222H544.45V226.022Z" fill="#C1CDD6"/>
</g>
</g>
</g>
<g opacity="0.3">
<g opacity="0.3">
<path opacity="0.3" d="M238.263 159.51L220.103 160.116L220.572 177.316L238.732 176.71L238.263 159.51Z" fill="#C1CDD6"/>
</g>
</g>
<g opacity="0.3">
<g opacity="0.3">
<g opacity="0.3">
<path opacity="0.3" d="M210.545 160.331L192.385 160.957L192.835 178.139L210.995 177.533L210.545 160.334" fill="#C1CDD6"/>
</g>
</g>
</g>
<g opacity="0.3">
<g opacity="0.3">
<g opacity="0.3">
<path opacity="0.3" d="M182.847 161.151L164.667 161.777L165.156 178.96L183.297 178.374L182.847 161.151Z" fill="#C1CDD6"/>
</g>
</g>
</g>
<g opacity="0.3">
<g opacity="0.3">
<path opacity="0.3" d="M155.148 161.972L137.008 162.558L137.458 179.757L155.598 179.171L155.148 161.972Z" fill="#C1CDD6"/>
</g>
</g>
<g opacity="0.3">
<g opacity="0.3">
<path opacity="0.3" d="M238.908 180.489L220.748 181.095L221.198 198.295L239.358 197.689L238.908 180.489Z" fill="#C1CDD6"/>
</g>
</g>
<g opacity="0.3">
<g opacity="0.3">
<path opacity="0.3" d="M211.19 181.31L193.03 181.895L193.499 199.095L211.659 198.489L211.19 181.31Z" fill="#C1CDD6"/>
</g>
</g>
<g opacity="0.3">
<g opacity="0.3">
<g opacity="0.3">
<path opacity="0.3" d="M183.472 182.133L165.312 182.739L165.781 199.939L183.922 199.313L183.472 182.13" fill="#C1CDD6"/>
</g>
</g>
</g>
<g opacity="0.3">
<g opacity="0.3">
<g opacity="0.3">
<path opacity="0.3" d="M155.793 182.892L137.652 183.498L138.102 200.698L156.282 200.092L155.793 182.892Z" fill="#C1CDD6"/>
</g>
</g>
</g>
<g opacity="0.3">
<g opacity="0.3">
<g opacity="0.3">
<path opacity="0.3" d="M239.552 201.471L221.392 202.057L221.842 219.257L240.022 218.651L239.553 201.468" fill="#C1CDD6"/>
</g>
</g>
</g>
<g opacity="0.3">
<g opacity="0.3">
<path opacity="0.3" d="M211.834 202.289L193.674 202.895L194.143 220.078L212.284 219.472L211.834 202.289Z" fill="#C1CDD6"/>
</g>
</g>
<g opacity="0.3">
<g opacity="0.3">
<path opacity="0.3" d="M184.097 203.109L165.956 203.715L166.406 220.898L184.566 220.312L184.097 203.112" fill="#C1CDD6"/>
</g>
</g>
<g opacity="0.3">
<g opacity="0.3">
<g opacity="0.3">
<path opacity="0.3" d="M156.418 203.871L138.238 204.477L138.707 221.676L156.867 221.07L156.417 203.871" fill="#C1CDD6"/>
</g>
</g>
</g>
<g opacity="0.3">
<g opacity="0.3">
<g opacity="0.3">
<path opacity="0.3" d="M240.197 222.389L222.037 223.015L222.506 240.197L240.647 239.612L240.197 222.39" fill="#C1CDD6"/>
</g>
</g>
</g>
<g opacity="0.3">
<g opacity="0.3">
<g opacity="0.3">
<path opacity="0.3" d="M212.46 223.268L194.319 223.854L194.769 241.053L212.929 240.467L212.46 223.268" fill="#C1CDD6"/>
</g>
</g>
</g>
<g opacity="0.3">
<g opacity="0.3">
<g opacity="0.3">
<path opacity="0.3" d="M184.781 224.029L166.601 224.635L167.07 241.835L185.23 241.229L184.78 224.029" fill="#C1CDD6"/>
</g>
</g>
</g>
<g opacity="0.3">
<g opacity="0.3">
<g opacity="0.3">
<path opacity="0.3" d="M157.043 224.852L138.883 225.458L139.333 242.658L157.493 242.072L157.043 224.85" fill="#C1CDD6"/>
</g>
</g>
</g>
<path opacity="0.3" d="M985.921 176.317L896.528 167.11V166.074L985.921 175.3V176.316V176.317Z" fill="#A9BED3"/>
<path opacity="0.3" d="M985.921 163.017L896.528 150.584V149.548L985.921 161.981V163.017Z" fill="#A9BED3"/>
<path opacity="0.3" d="M985.921 150.869L896.528 134.997V133.961L985.921 149.83V150.869Z" fill="#A9BED3"/>
<path opacity="0.3" d="M985.921 138.115L896.528 120.932V119.896L985.921 137.076V138.115Z" fill="#A9BED3"/>
<path opacity="0.3" d="M985.921 126.162L896.528 107.454V106.418L985.921 125.126V126.162Z" fill="#A9BED3"/>
<path opacity="0.3" d="M910.495 182.484L909.479 182.406V100.031L910.495 100.266V182.484Z" fill="#A9BED3"/>
<path opacity="0.3" d="M923.797 183.459L922.781 183.4V103.078L923.797 103.313V183.459H923.797Z" fill="#A9BED3"/>
<path opacity="0.3" d="M936.28 184.396L935.263 184.318V105.95L936.28 106.184V184.396Z" fill="#A9BED3"/>
<path opacity="0.3" d="M948.468 185.253L947.452 185.194V108.704L948.468 108.939V185.253Z" fill="#A9BED3"/>
<path opacity="0.3" d="M961.712 186.228L960.695 186.15V111.751L961.712 111.986V186.228Z" fill="#A9BED3"/>
<path opacity="0.3" d="M974.193 187.106L973.177 187.047V114.564L974.193 114.799V187.106V187.106Z" fill="#A9BED3"/>
<path opacity="0.3" d="M999.353 148.854L998.317 148.58V137.242L998.825 137.342H999.353V148.854V148.854Z" fill="#A9BED3"/>
<path opacity="0.3" d="M1010.94 137.008H1009.92V147.642H1010.94V137.008Z" fill="#A9BED3"/>
<path opacity="0.3" d="M1023.24 136.832H1022.23V147.017H1023.24V136.832Z" fill="#A9BED3"/>
<path opacity="0.3" d="M1035.49 136.891H1034.47V146.899H1035.49V136.891Z" fill="#A9BED3"/>
<path opacity="0.3" d="M1047.8 137.184H1046.78V147.426H1047.8V137.184Z" fill="#A9BED3"/>
<path opacity="0.3" d="M1060.04 137.945H1059.03V148.325H1060.04V137.945Z" fill="#A9BED3"/>
<path opacity="0.3" d="M999.92 173.874L998.903 173.737V164.491L999.411 164.569L999.919 164.628L999.92 173.874Z" fill="#A9BED3"/>
<path opacity="0.3" d="M1035.49 166.542H1034.47V176.297H1035.49V166.542Z" fill="#A9BED3"/>
<path opacity="0.3" d="M1047.54 166.542H1046.78V176.297H1047.54V166.542Z" fill="#A9BED3"/>
<path opacity="0.3" d="M1060.04 166.015H1059.03V175.594H1060.04V166.015Z" fill="#A9BED3"/>
<path opacity="0.3" d="M1071.06 149.574L1070.49 149.595L1070.04 149.536V139.235L1070.55 139.335L1071.06 139.314L1071.06 149.574Z" fill="#A9BED3"/>
<path opacity="0.3" d="M985.64 145.376L985.132 145.239V134.722L985.64 134.822V145.376Z" fill="#A9BED3"/>
<path opacity="0.3" d="M985.699 171.943L985.132 171.843V162.323L985.699 162.401L985.699 171.943H985.699Z" fill="#A9BED3"/>
<path opacity="0.3" d="M1080.85 138.766H1079.83V148.99H1080.85V138.766Z" fill="#A9BED3"/>
<path opacity="0.3" d="M1080.85 174.852L1079.83 174.872L1079.83 164.687L1080.85 164.609V174.852Z" fill="#A9BED3"/>
<path opacity="0.3" d="M1090.12 164.023H1089.62V174.54H1090.12V164.023Z" fill="#A9BED3"/>
<path opacity="0.3" d="M1102.18 189.509L1101.16 189.548V118.978L1102.18 118.9V189.509Z" fill="#A9BED3"/>
<path opacity="0.3" d="M1112.84 188.959L1111.83 188.998V118.041L1112.84 117.963V188.959Z" fill="#A9BED3"/>
<path opacity="0.3" d="M1123.45 188.475L1122.43 188.534V117.183L1123.45 117.084V188.475Z" fill="#A9BED3"/>
<path opacity="0.3" d="M1133.12 188.026L1132.1 188.084V116.363L1133.12 116.263V188.026Z" fill="#A9BED3"/>
<path opacity="0.3" d="M1141.85 187.615L1141.18 115.601L1142.2 115.501L1142.87 187.574L1141.85 187.615Z" fill="#A9BED3"/>
<path opacity="0.3" d="M1151.54 187.147L1150.74 114.781L1151.75 114.681L1152.55 187.106L1151.54 187.147Z" fill="#A9BED3"/>
<path opacity="0.3" d="M1161.29 186.716L1160.23 113.997L1161.25 113.919L1162.26 186.676L1161.29 186.716H1161.29Z" fill="#A9BED3"/>
<path opacity="0.3" d="M1171.19 186.23L1169.61 113.199L1170.62 113.099L1172.2 186.188L1171.19 186.23Z" fill="#A9BED3"/>
<path opacity="0.3" d="M1182.01 185.702L1180.45 112.261L1181.46 112.161L1183.03 185.66L1182.01 185.702Z" fill="#A9BED3"/>
<path opacity="0.3" d="M1192.54 185.251L1191.52 185.29V111.36L1192.54 111.282V185.251Z" fill="#A9BED3"/>
<path opacity="0.3" d="M1088.74 125.861L1088.74 124.845L1201.98 115.501V116.518L1088.74 125.861Z" fill="#A9BED3"/>
<path opacity="0.3" d="M1088.68 137.288L1088.7 136.252L1202.02 128.921V129.937L1088.68 137.288Z" fill="#A9BED3"/>
<path opacity="0.3" d="M1090.1 148.402L1089.6 148.441L1089.38 138.141L1089.87 138.121L1090.1 148.402Z" fill="#A9BED3"/>
<path opacity="0.3" d="M1088.87 148.714L1088.85 147.698L1201.98 140.993V142.009L1088.87 148.714Z" fill="#A9BED3"/>
<path opacity="0.3" d="M1088.91 159.907L1088.85 158.895L1201.98 152.185V153.201L1088.91 159.907Z" fill="#A9BED3"/>
<path opacity="0.3" d="M1088.85 171.094V170.078L1201.98 163.378V164.394L1088.85 171.094Z" fill="#A9BED3"/>
<path opacity="0.3" d="M1088.91 182.253L1088.85 181.237L1201.98 174.512V175.529L1088.91 182.253Z" fill="#A9BED3"/>
<path opacity="0.3" d="M1207.01 115.137L1206 114.707V105.598H1207.01V115.137Z" fill="#A9BED3"/>
<path opacity="0.3" d="M1216.08 104.495L1217.09 104.484L1218.14 202.531L1217.12 202.542L1216.08 104.495Z" fill="#A9BED3"/>
<path opacity="0.3" d="M1206.49 114.955L1204.24 114.017L1228.01 113.157L1228.05 114.175L1206.49 114.955Z" fill="#A9BED3"/>
<path opacity="0.3" d="M1206.29 122.466L1224.5 121.83L1224.53 122.847L1206.33 123.482L1206.29 122.466Z" fill="#A9BED3"/>
<path opacity="0.3" d="M1206.29 131.256L1224.5 130.62L1224.53 131.637L1206.33 132.272L1206.29 131.256Z" fill="#A9BED3"/>
<path opacity="0.3" d="M1206.29 140.105L1224.5 139.469L1224.53 140.485L1206.33 141.121L1206.29 140.105Z" fill="#A9BED3"/>
<path opacity="0.3" d="M1209.75 149.487L1227.97 148.669L1228.01 149.685L1209.79 150.503L1209.75 149.487Z" fill="#A9BED3"/>
<path opacity="0.3" d="M1206.29 157.802L1224.5 157.166L1224.53 158.183L1206.33 158.818L1206.29 157.802Z" fill="#A9BED3"/>
<path opacity="0.3" d="M1206.29 166.592L1224.5 165.956L1224.53 166.973L1206.33 167.609L1206.29 166.592Z" fill="#A9BED3"/>
<path opacity="0.3" d="M1206.29 175.441L1224.5 174.805L1224.53 175.821L1206.33 176.457L1206.29 175.441Z" fill="#A9BED3"/>
<path opacity="0.3" d="M1206.29 184.289L1224.5 183.654L1224.53 184.67L1206.33 185.306L1206.29 184.289Z" fill="#A9BED3"/>
<path opacity="0.3" d="M1209.75 193.73L1227.97 192.913L1228.01 193.928L1209.79 194.746L1209.75 193.73Z" fill="#A9BED3"/>
<path opacity="0.3" d="M885.238 207.234L884.632 91.4752L885.668 91.6751L886.254 207.242L885.238 207.234Z" fill="#A9BED3"/>
<path opacity="0.3" d="M875.784 207.552L874.142 89.3657L875.159 89.5807L876.801 207.532L875.784 207.552Z" fill="#A9BED3"/>
<path opacity="0.3" d="M826.814 109.876V215.728H825.797V110.15L826.814 109.876Z" fill="#A9BED3"/>
<path opacity="0.3" d="M892.933 107.575L867.521 102.356V101.32L892.933 106.539V107.575Z" fill="#A9BED3"/>
<path opacity="0.3" d="M892.913 118.943V119.979L867.658 114.779L867.638 113.743L892.913 118.943Z" fill="#A9BED3"/>
<path opacity="0.3" d="M892.933 131.386V132.422L867.834 127.261L867.814 126.225L892.933 131.386Z" fill="#A9BED3"/>
<path opacity="0.3" d="M892.952 143.789V144.825L868.009 139.705L867.989 138.649L892.952 143.789Z" fill="#A9BED3"/>
<path opacity="0.3" d="M892.912 156.152V157.208L868.126 152.108L868.107 151.072L892.912 156.152Z" fill="#A9BED3"/>
<path opacity="0.3" d="M892.932 168.617V169.654L868.303 164.59L868.282 163.554L892.932 168.617Z" fill="#A9BED3"/>
<path opacity="0.3" d="M892.928 180.997V182.037L868.458 177.013V175.977L892.928 180.997Z" fill="#A9BED3"/>
<path opacity="0.3" d="M892.913 193.4V194.436L868.595 189.436L868.575 188.4L892.913 193.4Z" fill="#A9BED3"/>
<path opacity="0.3" d="M892.913 205.809V206.844L868.751 201.883V200.824L892.913 205.809Z" fill="#A9BED3"/>
<path opacity="0.3" d="M1070.72 123.025C1064.36 121.075 1057.81 119.81 1051.17 119.252V208.234L1070.72 207.726V123.025V123.025Z" fill="#8399AA"/>
<path opacity="0.3" d="M784.739 121.596V138.056L783.722 138.31V121.85L784.23 121.713L784.739 121.596Z" fill="#A9BED3"/>
<path opacity="0.3" d="M797.514 120.014V136.532H796.497V120.073C796.79 120.034 797.162 120.034 797.514 120.014Z" fill="#A9BED3"/>
<path opacity="0.3" d="M813.081 120.015V136.493H812.143V119.955L813.081 120.015Z" fill="#A9BED3"/>
<path opacity="0.3" d="M784.739 225.214V208.735L783.722 208.989V225.468L784.739 225.214Z" fill="#A9BED3"/>
<path opacity="0.3" d="M797.514 207.211H796.497V223.69H797.514V207.211Z" fill="#A9BED3"/>
<path opacity="0.3" d="M813.101 207.211H812.085V223.69H813.101V207.211Z" fill="#A9BED3"/>
<path opacity="0.3" d="M784.739 196.148V179.669L783.722 179.923V196.402L784.739 196.148Z" fill="#A9BED3"/>
<path opacity="0.3" d="M797.514 178.087V194.565H796.497V178.145L797.514 178.087Z" fill="#A9BED3"/>
<path opacity="0.3" d="M813.101 178.126V194.604H812.085V178.087L813.101 178.126Z" fill="#A9BED3"/>
<path opacity="0.3" d="M784.739 167.14V150.662L783.722 150.916V167.395L784.739 167.141V167.14Z" fill="#A9BED3"/>
<path opacity="0.3" d="M797.514 149.079V165.558H796.497V149.139L797.514 149.079Z" fill="#A9BED3"/>
<path opacity="0.3" d="M813.101 149.118V165.597H812.085V149.079L813.101 149.118Z" fill="#A9BED3"/>
<path opacity="0.3" d="M1276.28 166.172V182.572L1275.26 182.122V165.722L1276.28 166.172Z" fill="#A9BED3"/>
<path opacity="0.3" d="M1263.42 163.085V179.564L1264.44 179.701V163.241L1263.42 163.085Z" fill="#A9BED3"/>
<path opacity="0.3" d="M1276.28 195.179V211.658L1275.26 211.208V194.729L1276.28 195.179Z" fill="#A9BED3"/>
<path opacity="0.3" d="M1263.42 192.151V208.611L1264.44 208.748V192.248L1263.42 192.151Z" fill="#A9BED3"/>
<path opacity="0.3" d="M1276.28 137.048V153.527L1275.26 153.077V136.598L1276.28 137.048V137.048Z" fill="#A9BED3"/>
<path opacity="0.3" d="M1263.42 134.019V150.498L1264.44 150.635V134.135L1263.42 134.019Z" fill="#A9BED3"/>
<path opacity="0.3" d="M1251.78 133.433H1250.77V149.912H1251.78V133.433Z" fill="#A9BED3"/>
<path opacity="0.3" d="M1251.78 162.499H1250.77V178.978H1251.78V162.499Z" fill="#A9BED3"/>
<path opacity="0.3" d="M1251.78 191.506H1250.77V207.985H1251.78V191.506Z" fill="#A9BED3"/>
<path opacity="0.3" d="M1208.16 114.877V114.74L1214.24 115.6V201.65L1209.96 201.55V115.62L1208.16 114.877Z" fill="#8399AA"/>
<path opacity="0.3" d="M822.34 121.11V120.054L830.218 118.373V119.409L822.34 121.11V121.11Z" fill="#A9BED3"/>
<path opacity="0.3" d="M822.34 130.426V129.39L830.218 127.69V128.746L822.34 130.426Z" fill="#A9BED3"/>
<path opacity="0.3" d="M822.34 139.824V138.806L830.218 137.125V138.161L822.34 139.824Z" fill="#A9BED3"/>
<path opacity="0.3" d="M822.34 149.238V148.201L830.218 146.501V147.537L822.34 149.238Z" fill="#A9BED3"/>
<path opacity="0.3" d="M822.34 158.594V157.558L830.218 155.877V156.913L822.34 158.594Z" fill="#A9BED3"/>
<path opacity="0.3" d="M822.34 167.99V166.934L830.218 165.253V166.289L822.34 167.99Z" fill="#A9BED3"/>
<path opacity="0.3" d="M822.34 177.307V176.271L830.218 174.571V175.607L822.34 177.307Z" fill="#A9BED3"/>
<path opacity="0.3" d="M822.34 186.722V185.686L830.218 184.005V185.041L822.34 186.722Z" fill="#A9BED3"/>
<path opacity="0.3" d="M822.34 196.119V195.062L830.218 193.381V194.417L822.34 196.119Z" fill="#A9BED3"/>
<path opacity="0.3" d="M822.34 205.436V204.399L830.218 202.699V203.755L822.34 205.436Z" fill="#A9BED3"/>
<path opacity="0.3" d="M822.223 213.825L830.099 212.134L830.313 213.128L822.436 214.819L822.222 213.825H822.223Z" fill="#A9BED3"/>
<path opacity="0.3" d="M1361.95 135.308H1360.94V151.162H1361.95V135.308Z" fill="#CAD6DD"/>
<path opacity="0.3" d="M1376.37 133.609H1375.35V149.463H1376.37V133.609Z" fill="#CAD6DD"/>
<path opacity="0.3" d="M1412.29 132.847H1411.27V148.701H1412.29V132.847Z" fill="#CAD6DD"/>
<path opacity="0.3" d="M1425.83 132.847H1424.81V148.701H1425.83V132.847Z" fill="#CAD6DD"/>
<path opacity="0.3" d="M1439.83 134.078H1438.82V149.932H1439.83V134.078Z" fill="#CAD6DD"/>
<path opacity="0.3" d="M1454.19 135.308H1453.17V151.162H1454.19V135.308Z" fill="#CAD6DD"/>
<path opacity="0.3" d="M1361.95 180.958H1360.94V204.65H1361.95V180.958Z" fill="#CAD6DD"/>
<path opacity="0.3" d="M1376.37 179.317H1375.35V203.009H1376.37V179.317Z" fill="#CAD6DD"/>
<path opacity="0.3" d="M1412.29 178.497H1411.27V202.189H1412.29V178.497Z" fill="#CAD6DD"/>
<path opacity="0.3" d="M1425.83 178.497H1424.81V202.189H1425.83V178.497Z" fill="#CAD6DD"/>
<path opacity="0.3" d="M1439.83 179.786H1438.82V203.478H1439.83V179.786Z" fill="#CAD6DD"/>
<path opacity="0.3" d="M1454.19 180.958H1453.17V204.65H1454.19V180.958Z" fill="#CAD6DD"/>
<path opacity="0.3" d="M1501.71 171.934H1457.33V179.303H1501.71V171.934Z" fill="#F9F0EF"/>
<path opacity="0.3" d="M1530.49 90.1274H1529.47V106.137H1530.49V90.1274Z" fill="#CAD6DD"/>
<path opacity="0.3" d="M1544.02 90.1274H1543.01V106.723H1544.02V90.1274Z" fill="#CAD6DD"/>
<path opacity="0.3" d="M1564.65 90.1274H1563.63V107.095H1564.65V90.1274Z" fill="#CAD6DD"/>
<path opacity="0.3" d="M1585.28 90.8307H1584.26V106.724H1585.28V90.8307Z" fill="#CAD6DD"/>
<path opacity="0.3" d="M1605.85 91.1823H1604.83V107.094H1605.85V91.1823Z" fill="#CAD6DD"/>
<path opacity="0.3" d="M1626.48 92.1199H1625.46V107.348H1626.48V92.1199Z" fill="#CAD6DD"/>
<path opacity="0.3" d="M1647.1 92.5887H1646.09V108.364H1647.1V92.5887Z" fill="#CAD6DD"/>
<path opacity="0.3" d="M1530.49 131.91H1529.47V147.919H1530.49V131.91Z" fill="#CAD6DD"/>
<path opacity="0.3" d="M1544.02 131.91H1543.01V148.505H1544.02V131.91Z" fill="#CAD6DD"/>
<path opacity="0.3" d="M1564.65 131.91H1563.63V148.877H1564.65V131.91Z" fill="#CAD6DD"/>
<path opacity="0.3" d="M1585.28 133.55H1584.26V149.443H1585.28V133.55Z" fill="#CAD6DD"/>
<path opacity="0.3" d="M1605.85 133.55H1604.83V149.462H1605.85V133.55Z" fill="#CAD6DD"/>
<path opacity="0.3" d="M1626.48 134.605H1625.46V149.833H1626.48V134.605Z" fill="#CAD6DD"/>
<path opacity="0.3" d="M1647.1 134.898H1646.09V150.673H1647.1V134.898Z" fill="#CAD6DD"/>
<path opacity="0.3" d="M1772.66 139.352L1772.66 152.41" stroke="#AEBECE" stroke-width="0.000521185"/>
<path opacity="0.3" d="M1786.84 140.758V153.816" stroke="#AEBECE" stroke-width="0.000521185"/>
<path opacity="0.3" d="M1800.91 143.337V156.669" stroke="#AEBECE" stroke-width="0.000521185"/>
<path opacity="0.3" d="M1475.17 55.6704H1474.15V66.3433H1475.17V55.6704Z" fill="#AEBECE"/>
<path opacity="0.3" d="M1485.89 55.6704H1484.88V66.3433H1485.89V55.6704Z" fill="#AEBECE"/>
<path opacity="0.3" d="M1496.32 55.6704H1495.31V66.3433H1496.32V55.6704Z" fill="#AEBECE"/>
<path opacity="0.3" d="M1507.81 55.6704H1506.79V61.2414H1507.81V55.6704Z" fill="#AEBECE"/>
<path opacity="0.3" d="M1518.12 55.6704H1517.11V61.0074H1518.12V55.6704Z" fill="#AEBECE"/>
<path opacity="0.3" d="M1464.14 25.1982H1455.4V26.2151H1464.14V25.1982Z" fill="#AEBECE"/>
<path opacity="0.3" d="M1536.22 25.1982H1527.48V26.2151H1536.22V25.1982Z" fill="#AEBECE"/>
<path opacity="0.3" d="M1519.33 25.1982H1471.81V26.2151H1519.33V25.1982Z" fill="#AEBECE"/>
<path opacity="0.3" d="M1526.8 60.71H1464.78V61.7271H1526.8V60.71Z" fill="#AEBECE"/>
<path opacity="0.3" d="M1462.34 17.8145H1461.32V34.0393H1462.34V17.8145Z" fill="#AEBECE"/>
<path opacity="0.3" d="M1475.52 17.8145H1474.5V31.6545H1475.52V17.8145Z" fill="#AEBECE"/>
<path opacity="0.3" d="M1487.83 17.8145H1486.81V29.6994H1487.83V17.8145Z" fill="#AEBECE"/>
<path opacity="0.3" d="M1503.59 17.8145H1502.57V29.6994H1503.59V17.8145Z" fill="#AEBECE"/>
<path opacity="0.3" d="M1514.43 17.8145H1513.41V30.6774H1514.43V17.8145Z" fill="#AEBECE"/>
<path opacity="0.3" d="M1529.55 17.8145H1528.53V32.5143H1529.55V17.8145Z" fill="#AEBECE"/>
<path opacity="0.3" d="M1492.79 61.2787V65.0517C1492.79 65.0517 1626.77 65.0516 1733.89 72.8705V69.3706C1733.89 69.3706 1612.46 60.1238 1492.79 61.2787Z" fill="#F9F0EF"/>
<path opacity="0.3" d="M1733.91 67.3905L1739.99 73.0595V206.728L1731.88 206.689V182.371H1733.91V178.911H1733.75V157.7H1733.91V154.24L1733.75 154.22V138.78H1733.91V135.3H1733.75V114.188H1733.91V110.728L1733.75 110.708V97.4552H1733.91V93.9952L1733.75 93.9753V70.8705H1733.91V67.3905Z" fill="#8399AA"/>
<path opacity="0.3" d="M444.66 163.026V164.846H461.413V180.289H462.84V163.026H444.66Z" fill="#A5B8C4"/>
<path opacity="0.3" d="M471.851 163.026V164.846H488.603V180.289H490.03V163.026H471.851Z" fill="#A5B8C4"/>
<path opacity="0.3" d="M444.66 184.005V185.823H461.413V201.266H462.84V184.005H444.66Z" fill="#A5B8C4"/>
<path opacity="0.3" d="M471.851 184.005V185.823H488.603V201.266H490.03V184.005H471.851Z" fill="#A5B8C4"/>
<path opacity="0.3" d="M444.66 205.043V206.863H461.413V222.306H462.84V205.043H444.66Z" fill="#A5B8C4"/>
<path opacity="0.3" d="M471.851 205.043V206.863H488.603V222.306H490.03V205.043H471.851Z" fill="#A5B8C4"/>
<path opacity="0.3" d="M444.66 226.022V227.84H461.413V243.283H462.84V226.022H444.66Z" fill="#A5B8C4"/>
<path opacity="0.3" d="M471.851 226.022V227.84H488.603V243.283H490.03V226.022H471.851Z" fill="#A5B8C4"/>
<path opacity="0.3" d="M499.1 163.026V164.846H515.853V180.289H517.28V163.026H499.1Z" fill="#A5B8C4"/>
<path opacity="0.3" d="M526.29 163.026V164.846H543.062V180.289H544.489V163.026H526.29Z" fill="#A5B8C4"/>
<path opacity="0.3" d="M499.1 184.005V185.823H515.853V201.266H517.28V184.005H499.1Z" fill="#A5B8C4"/>
<path opacity="0.3" d="M526.29 184.005V185.823H543.062V201.266H544.489V184.005H526.29Z" fill="#A5B8C4"/>
<path opacity="0.3" d="M499.1 205.043V206.863H515.853V222.306H517.28V205.043H499.1Z" fill="#A5B8C4"/>
<path opacity="0.3" d="M526.29 205.043V206.863H543.062V222.306H544.489V205.043H526.29Z" fill="#A5B8C4"/>
<path opacity="0.3" d="M499.1 226.022V227.84H515.853V243.283H517.28V226.022H499.1Z" fill="#A5B8C4"/>
<path opacity="0.3" d="M526.29 226.022V227.84H543.062V243.283H544.489V226.022H526.29Z" fill="#A5B8C4"/>
<path opacity="0.3" d="M139.51 200.641L139.041 185.354L155.735 184.904V182.951L137.535 183.536L138.043 200.68L139.51 200.641Z" fill="#A5B8C4"/>
<path opacity="0.3" d="M138.924 179.662L138.455 164.376L155.149 163.926V161.972L136.949 162.558L137.457 179.701L138.924 179.662Z" fill="#A5B8C4"/>
<path opacity="0.3" d="M140.208 221.619L139.758 206.333L156.452 205.883V203.929L138.238 204.519L138.746 221.682L140.208 221.619Z" fill="#A5B8C4"/>
<path opacity="0.3" d="M140.912 242.619L140.448 227.312L157.141 226.863V224.908L138.942 225.495L139.448 242.658L140.912 242.619Z" fill="#A5B8C4"/>
<path opacity="0.3" d="M166.642 178.842L166.192 163.555L182.886 163.105V161.151L164.667 161.737L165.175 178.9L166.642 178.842Z" fill="#A5B8C4"/>
<path opacity="0.3" d="M167.341 199.821L166.876 184.534L183.57 184.084V182.13L165.37 182.716L165.877 199.86L167.341 199.821Z" fill="#A5B8C4"/>
<path opacity="0.3" d="M167.814 220.8L167.364 205.513L184.058 205.063V203.109L165.839 203.695L166.347 220.839L167.814 220.8Z" fill="#A5B8C4"/>
<path opacity="0.3" d="M168.576 241.74L168.126 226.434L184.82 225.984V224.029L166.601 224.615L167.109 241.778L168.576 241.74Z" fill="#A5B8C4"/>
<path opacity="0.3" d="M195.005 199L194.555 183.714L211.248 183.264V181.31L193.03 181.896L193.538 199.058L195.005 199Z" fill="#A5B8C4"/>
<path opacity="0.3" d="M194.301 178.041L193.833 162.754L210.526 162.285V160.331L192.327 160.937L192.835 178.081L194.301 178.041Z" fill="#A5B8C4"/>
<path opacity="0.3" d="M195.59 220L195.121 204.694L211.834 204.244V202.289L193.616 202.895L194.124 220.039L195.59 220Z" fill="#A5B8C4"/>
<path opacity="0.3" d="M196.293 240.977L195.843 225.69L212.537 225.221V223.268L194.319 223.877L194.847 241.021L196.293 240.977Z" fill="#A5B8C4"/>
<path opacity="0.3" d="M222.723 198.238L222.254 182.951L238.948 182.501V180.548L220.748 181.134L221.256 198.278L222.723 198.238Z" fill="#A5B8C4"/>
<path opacity="0.3" d="M222.02 177.26L221.57 161.973L238.263 161.523V159.569L220.045 160.155L220.553 177.318L222.02 177.26Z" fill="#A5B8C4"/>
<path opacity="0.3" d="M223.953 240.158L223.484 224.852L240.178 224.402V222.447L221.978 223.033L222.486 240.196L223.953 240.158Z" fill="#A5B8C4"/>
<path opacity="0.3" d="M223.309 219.159L222.859 203.872L239.552 203.422V201.468L221.334 202.054L221.862 219.198L223.309 219.159Z" fill="#A5B8C4"/>
<path opacity="0.3" d="M121.772 154.1L122.261 170.227L258.197 165.614L257.747 149.314L121.772 154.1Z" fill="black"/>
<path opacity="0.3" d="M435.811 152.109V164.638L549.58 164.814V153.415L439.721 150.076L435.811 152.109Z" fill="black"/>
<path opacity="0.3" d="M362.643 252.148H361.607L357.697 105.305C358.046 105.423 358.386 105.567 358.714 105.735L362.643 252.148Z" fill="#A9BED3"/>
<path opacity="0.3" d="M350.686 104.895V252.462H349.669V105.188C350.001 105.069 350.34 104.972 350.685 104.895H350.686Z" fill="#A9BED3"/>
<path opacity="0.3" d="M365.945 117.162H341.234C341.218 116.82 341.252 116.478 341.334 116.146H365.808C365.874 116.482 365.92 116.821 365.945 117.162Z" fill="#A9BED3"/>
<path opacity="0.3" d="M366.213 128.942H341.172V127.925H366.194L366.213 128.942Z" fill="#A9BED3"/>
<path opacity="0.3" d="M366.408 139.821H341.23V140.837H366.408V139.821Z" fill="#A9BED3"/>
<path opacity="0.3" d="M366.76 151.658H341.23V152.675H366.76V151.658Z" fill="#A9BED3"/>
<path opacity="0.3" d="M367.014 163.554H341.23V164.571H367.014V163.554Z" fill="#A9BED3"/>
<path opacity="0.3" d="M367.268 175.391H341.23V176.408H367.268V175.391Z" fill="#A9BED3"/>
<path opacity="0.3" d="M367.542 187.287H341.23V188.304H367.542V187.287Z" fill="#A9BED3"/>
<path opacity="0.3" d="M367.796 199.124H341.23V200.141H367.796V199.124Z" fill="#A9BED3"/>
<path opacity="0.3" d="M368.05 211.02H341.23V212.037H368.05V211.02Z" fill="#A9BED3"/>
<path opacity="0.3" d="M368.304 222.857H341.23V223.874H368.304V222.857Z" fill="#A9BED3"/>
<path opacity="0.3" d="M368.558 234.753H341.23V235.77H368.558V234.753Z" fill="#A9BED3"/>
<path opacity="0.3" d="M368.812 246.591H341.23V247.607H368.812V246.591Z" fill="#A9BED3"/>
<path opacity="0.3" d="M353.542 126.471C357.72 126.471 361.107 123.084 361.107 118.906C361.107 114.728 357.72 111.341 353.542 111.341C349.364 111.341 345.977 114.728 345.977 118.906C345.977 123.084 349.364 126.471 353.542 126.471Z" fill="#F9F0EF"/>
<path opacity="0.3" d="M353.562 127.509C348.854 127.509 344.981 123.634 344.981 118.926C344.981 114.219 348.854 110.345 353.562 110.345C358.27 110.345 362.144 114.219 362.144 118.926C362.144 123.634 358.27 127.509 353.562 127.509ZM353.562 111.362C349.412 111.362 345.998 114.777 345.998 118.927C345.998 123.076 349.412 126.491 353.562 126.491C357.712 126.491 361.127 123.076 361.127 118.926C361.127 114.777 357.712 111.362 353.562 111.362Z" fill="black"/>
<path opacity="0.3" d="M1504.18 190.227L1721.57 192.964V180.805L1513.19 176.446L1502.28 177.541L1504.18 190.227Z" fill="#8399AA"/>
<path opacity="0.3" d="M1511.66 177.501H1501.4V205.552H1511.66V177.501Z" fill="#D9DADB"/>
<path opacity="0.3" d="M1584.45 177.501H1574.18V205.552H1584.45V177.501Z" fill="#D9DADB"/>
<path opacity="0.3" d="M1654.65 177.501H1644.39V205.552H1654.65V177.501Z" fill="#D9DADB"/>
<path opacity="0.3" d="M1731.83 177.501H1721.56V205.552H1731.83V177.501Z" fill="#D9DADB"/>
<path opacity="0.3" d="M1492.79 174.336V178.109C1492.79 178.109 1625.48 179.243 1733.89 181.119V177.659C1733.89 177.659 1613.34 175.216 1492.79 174.336Z" fill="#F9F0EF"/>
<path opacity="0.3" d="M999.196 173.425V164.257L1018.06 166.212V184.312C1013.43 184.488 1001.8 185.602 1001.8 185.602V191.702L1018.06 191.233V206.87H999.196V165.254" fill="#8399AA"/>
<path opacity="0.3" d="M357.134 121.484C357.05 121.502 356.963 121.502 356.879 121.484L353.321 119.392C353.165 119.306 353.067 119.141 353.068 118.962V114.896C353.068 114.617 353.297 114.388 353.576 114.388C353.854 114.388 354.083 114.617 354.083 114.896V118.61L357.383 120.565C357.625 120.707 357.713 121.017 357.584 121.265C357.478 121.406 357.31 121.488 357.134 121.484Z" fill="black"/>
<path opacity="0.3" d="M830.342 108.842L830.029 208.224L826.901 211.449L825.885 212.505L812.436 226.384V106.243C814.391 106.243 824.419 107.611 824.419 107.611V110.484L825.885 110.073L826.901 109.8L830.342 108.842Z" fill="#8399AA"/>
<path opacity="0.3" d="M1245.43 119.803C1250.21 119.64 1254.99 119.72 1259.76 120.042V202.451L1245.43 202.041V119.803Z" fill="#8399AA"/>
<path opacity="0.3" d="M1353.9 151.99V155.176C1353.9 155.176 1370.32 151.485 1404.22 151.524C1438.12 151.563 1458.42 155.179 1458.42 155.179V151.133C1458.42 151.133 1426.33 147.79 1404.79 147.79C1387.75 148.005 1370.75 149.408 1353.9 151.99Z" fill="#F9F0EF"/>
<path opacity="0.3" d="M1353.91 133.338V136.525C1353.91 136.525 1370.33 132.85 1404.23 132.869C1438.13 132.888 1458.43 136.525 1458.43 136.525V133.338C1458.43 133.338 1426.33 129.155 1404.79 129.155C1387.75 129.369 1370.75 130.767 1353.9 133.338H1353.91Z" fill="#F9F0EF"/>
<path opacity="0.3" d="M1353.91 179.239V182.464C1353.91 182.464 1370.33 178.793 1404.23 178.812C1438.13 178.832 1458.43 182.467 1458.43 182.467V178.362C1458.43 178.362 1426.33 175.039 1404.79 175.039C1387.75 175.254 1370.75 176.657 1353.9 179.239H1353.91Z" fill="#F9F0EF"/>
<path opacity="0.3" d="M1492.79 105.015V108.767C1492.79 108.767 1625.48 108.396 1733.89 114.201V110.741C1733.89 110.741 1613.34 104.878 1492.79 105.014V105.015Z" fill="#F9F0EF"/>
<path opacity="0.3" d="M1492.79 129.158V132.911C1492.79 132.911 1625.48 132.481 1733.89 138.345V134.884C1733.89 134.884 1613.34 129.022 1492.79 129.158Z" fill="#F9F0EF"/>
<path opacity="0.3" d="M1492.79 147.556V151.309C1492.79 151.309 1625.71 153.557 1733.89 156.939V153.479C1733.89 153.479 1613.34 148.416 1492.79 147.556Z" fill="#F9F0EF"/>
<path opacity="0.3" d="M1492.79 86.3727V90.1255C1492.79 90.1255 1626.77 90.1255 1733.89 97.9446V94.3876C1733.89 94.3876 1612.46 85.1417 1492.79 86.3727Z" fill="#F9F0EF"/>
<path opacity="0.3" d="M1500.43 64.4604L1486.75 85.2202V203.619H1501.59V64.4604H1500.43Z" fill="#8399AA"/>
<path opacity="0.3" d="M1756.43 135.309V139.531C1756.43 139.531 1785.75 136.731 1810.58 147.35V143.15C1810.58 143.15 1799.81 135.251 1756.43 135.309Z" fill="#F9F0EF"/>
<path opacity="0.3" d="M1756.43 152.127V156.349C1756.43 156.349 1785.75 153.549 1810.58 164.168V159.968C1810.58 159.968 1799.81 152.069 1756.43 152.127Z" fill="#F9F0EF"/>
<path opacity="0.3" d="M824.837 231.999V233.934L805.308 244.764L776.338 238.333V236.417L805.308 242.848L824.837 231.999Z" fill="#F4C0B5"/>
<path opacity="0.3" d="M1302.8 212.557V262.892L1298.13 262.931L1251.76 263.361V250.906H1241.54V232.922L1236.28 233.567H1129.55V248.056H1128.32V233.568H1123.59L1121.69 236.246L1099.34 236.715V211.576L1101.16 203.542L1169.25 199.417L1278.64 200.785V204.949H1298.13V212.534L1302.8 212.557Z" fill="#D9DADB"/>
<path opacity="0.3" d="M1128.15 234.636H900.747V241.673H1128.15V234.636Z" fill="#D9DADB"/>
<path opacity="0.3" d="M1253.73 247.645H1233.54V264.965H1253.73V247.645Z" fill="#CACBCC"/>
<path opacity="0.3" d="M1919.98 214.157V257.24L1239.23 263.356V250.906L1233.4 247.447L1229 232.923L1223.74 233.568H1117.01V248.056H1115.78V233.568H1111.05L1109.15 236.246L1086.8 236.715V211.576L1088.62 203.542L1156.71 199.417L1266.1 200.785V204.949H1285.59V212.534L1919.98 214.157H1919.98Z" fill="#D1D1D1"/>
<path opacity="0.3" d="M1302.8 212.557V262.892L1298.13 262.931L1251.76 263.361V250.906H1241.54V232.922L1236.28 233.567H1129.55V248.056H1128.32V233.568H1123.59L1121.69 236.246L1099.34 236.715V211.576L1101.16 203.542L1169.25 199.417L1278.64 200.785V204.949H1298.13V212.534L1302.8 212.557Z" fill="#D9DADB"/>
<path opacity="0.3" d="M1241.32 235.281V250.664L1240.16 251.153V253.381L1239.24 253.987L1239.24 256.587L1238.07 257.232V259.519L1237.23 260.164V262.686H1236.06L1236.06 236.004L1241.32 235.281Z" fill="#F7F7F7"/>
<path opacity="0.3" d="M1236.06 233.699L1241.32 233.054V235.654L1236.06 236.377V233.699Z" fill="#BABABA"/>
<path opacity="0.3" d="M1130.11 261.747V233.347H1236.84V262.708L1130.11 261.75" fill="#BABABA"/>
<path opacity="0.3" d="M1130.11 264.384V235.984H1236.84V265.326L1130.11 264.384Z" fill="#E8E9EA"/>
<path opacity="0.3" d="M818.356 217.728C818.356 217.728 824.064 207.309 827.426 207.309C830.787 207.309 884.325 205.805 884.325 205.805L1105.33 206.88L1104.16 212.079L818.355 217.728" fill="#F9F0EF"/>
<path opacity="0.3" d="M565.318 261.898V250.813L648.553 238.225L759.409 228.197L815.297 217.314L923.377 214.069L1107.34 211.489V215.614L910.377 218.879L889.207 237.958L836.662 238.603L737.417 247.202H650.625V259.478L565.318 261.898Z" fill="#F9F0EF"/>
<path opacity="0.3" d="M542.054 262.492V245.544H705.064L891.492 233.698V260.088L542.054 262.488" fill="#F4E3E1"/>
<path opacity="0.3" d="M906.314 219.149L1103.28 215.884V236.917L906.314 238.228V219.149Z" fill="#D1D1D1"/>
<path opacity="0.3" d="M887.254 238.01L908.424 218.931V239.554H903.4V244.597H897.848V249.328H892.922V254.981L890.929 256.232L881.585 254.432L883.129 247.141L887.254 239.556" fill="#D9DADB"/>
<path opacity="0.3" d="M1130.2 247.779H1131.43V261.696L1116.94 261.579L1116.69 256.58L1120.36 252.885L1123.84 248.545L1126.52 247.001L1130.2 247.783" fill="#CACBCC"/>
<path opacity="0.3" d="M1128.85 233.523H1125.49L1114.11 249.63H1116.96L1128.85 233.523Z" fill="#C8CACC"/>
<path opacity="0.3" d="M1116.92 249.455L1128.81 233.347H1130.18V247.832H1126.09V250.1H1123.55V253.462H1120.89V256.179H1118.43V258.993H1116.92V249.455Z" fill="#E8E9EA"/>
<path opacity="0.3" d="M833.181 257.602V238.445L885.726 237.8V254.49L1117.11 257.012V261.59L833.181 257.602" fill="#C8CACC"/>
<path opacity="0.3" d="M184.894 261.065H172.461V262.903H184.894V261.065Z" fill="#E8E9EA"/>
<path opacity="0.3" d="M184.894 257.607H172.461V259.445H184.894V257.607Z" fill="#E8E9EA"/>
<path opacity="0.3" d="M184.894 254.091H172.461V255.929H184.894V254.091Z" fill="#E8E9EA"/>
<path opacity="0.3" d="M184.894 250.634H172.461V252.472H184.894V250.634Z" fill="#F9F0EF"/>
<path opacity="0.3" d="M166.601 252.377L554.021 245.477V263.618L166.601 273.274V252.374" fill="#F4E3E1"/>
<path opacity="0.3" d="M184.884 233.581V276.665L293.293 272.462V238.312L184.884 233.581Z" fill="#E8DBDA"/>
<path opacity="0.3" d="M1125.53 237.742L1102.23 238.192L901.204 239.382V244.425H895.652V249.156H890.726V254.804L1116.06 257.053V250.094L1125.53 237.742Z" fill="#E8E9EA"/>
<path opacity="0.3" d="M895.707 249.212V244.481H1120.47L1116.11 250.15L895.707 249.212Z" fill="#D9DADB"/>
<path opacity="0.3" d="M0.761807 322.958L105.919 273.15L653.072 257.336L835.795 255.616L1118.24 259.662L1346.66 260.268L1560.27 258.313L1919.98 255.029V362.953H0.762527V322.958H0.761807Z" fill="#9FC1A5"/>
<path opacity="0.3" d="M136.404 362.999V272.375L92.6947 273.607L0.761807 323.004V363.004H136.404" fill="#9FB0C4"/>
<path opacity="0.3" d="M29.8329 362.861L101.71 273.195L97.546 273.395L23.03 362.861H39.0008" fill="#F9F0EF"/>
<path opacity="0.3" d="M105.973 362.999L130.955 272.492L125.736 272.668L100.5 362.999H105.973Z" fill="#F9F0EF"/>
<path opacity="0.3" d="M177.636 363.058L152.303 271.281L157.424 271.144L183.091 362.98" fill="#F9F0EF"/>
<path opacity="0.3" d="M838.932 362.989L1133.5 259.717L1126.81 259.795L826.266 362.989" fill="#F9F0EF"/>
<path opacity="0.3" d="M1117.08 249.403H1114.23V261.581H1117.08V249.403Z" fill="#C8CACC"/>
<path opacity="0.3" d="M1263.94 233.874H1260.56L1249.19 249.982H1252.06L1263.94 233.874" fill="#BABABA"/>
<path opacity="0.3" d="M1252.06 249.806L1263.94 233.698H1265.31V248.164H1261.21V250.451H1258.69V253.813H1256.01V256.513H1253.55V259.347H1252.06V249.808" fill="#E8E9EA"/>
<path opacity="0.3" d="M1249.3 261.894L1249.33 249.696L1252.19 249.704L1252.16 261.902L1249.3 261.894Z" fill="#BABABA"/>
<g opacity="0.3">
<g opacity="0.3">
<g opacity="0.3">
<path opacity="0.3" d="M1022.12 311.669C949.482 313.78 900.71 306.997 900.71 299.354C900.71 291.712 949.481 282.094 1022.12 279.983C1094.76 277.872 1143.57 284.655 1143.57 292.298C1143.57 299.94 1094.7 309.558 1022.12 311.669ZM1022.12 277.95C960.937 279.729 897.641 288.25 897.641 299.449C897.641 310.649 960.94 315.498 1022.12 313.719C1083.3 311.94 1146.6 303.437 1146.6 292.22C1146.6 281.002 1083.33 276.171 1022.12 277.95Z" fill="#F9F0EF"/>
</g>
</g>
</g>
<path opacity="0.3" d="M476.836 271.625H476.68L464.365 270.335C463.953 270.293 463.577 270.08 463.329 269.749C463.073 269.416 462.96 268.993 463.016 268.576L468.998 230.126C469.113 229.387 469.755 228.837 470.503 228.836H475.312V228.719C475.312 227.882 476 227.194 476.837 227.194H576.1C576.937 227.194 577.626 227.882 577.626 228.719V268.732C577.624 269.189 577.415 269.621 577.058 269.905C576.706 270.201 576.237 270.316 575.787 270.218L561.635 267.364C560.82 267.198 560.278 266.402 560.423 265.582L567.107 230.24H478.361V270.117C478.361 270.954 477.672 271.642 476.836 271.642V271.625ZM466.28 267.442L475.311 268.4V231.865H471.811L466.28 267.442ZM563.805 264.642L574.674 266.831V230.223H570.315L563.805 264.642Z" fill="#F9F0EF"/>
<path opacity="0.3" d="M464.625 270.096C464.612 270.096 464.599 270.097 464.585 270.097C463.749 270.097 463.061 269.408 463.061 268.572C463.061 267.735 463.749 267.047 464.585 267.047C464.599 267.047 464.612 267.047 464.625 267.047L562.032 264.115C562.064 264.113 562.097 264.112 562.129 264.112C562.934 264.112 563.595 264.774 563.595 265.578C563.595 265.579 563.595 265.58 563.595 265.581C563.596 265.601 563.597 265.621 563.597 265.64C563.597 266.455 562.944 267.133 562.129 267.164L464.722 270.096H464.625Z" fill="#F9F0EF"/>
<path opacity="0.3" d="M470.925 232.331C470.238 232.328 469.635 231.861 469.459 231.197C469.413 231.049 469.389 230.895 469.389 230.739C469.389 230.035 469.871 229.415 470.554 229.242L476.868 227.601C477 227.564 477.137 227.545 477.275 227.545C478.112 227.545 478.802 228.235 478.802 229.072C478.802 229.769 478.325 230.381 477.65 230.553L471.316 232.215L470.925 232.331Z" fill="#F9F0EF"/>
<path opacity="0.3" d="M172.485 233.581L92.7058 243.609V275.375L172.485 274.341V233.581Z" fill="#E8DBDA"/>
<path opacity="0.3" d="M1266.12 201.41H1446.06L1591.71 203.169L1736.36 204.948L1809 204.968L1920 208.076V214.801L1725.3 214.293L1607.03 213.979L1465.94 213.628L1331.86 213.276L1285.61 213.158V205.574H1266.12V201.41Z" fill="#F9F0EF"/>
<path opacity="0.3" d="M896.528 180.489L898.502 182.678L985.92 188.836V187.249L896.528 180.489Z" fill="#8399AA"/>
<path opacity="0.3" d="M1919.76 236.218V256.9L1241.57 259.4V253.262H1246.47L1246.47 248.121H1252.04V242.628L1257.93 242.589L1453.08 241.338L1476.38 240.849L1919.76 236.218H1919.76Z" fill="#E8E9EA"/>
<path opacity="0.3" d="M1246.67 253.453V248.312L1919.96 244.598V250.58L1246.67 253.453Z" fill="#D9DADB"/>
<path opacity="0.3" d="M1919.99 230.768V239.213L1253.35 243.044V237.922L1260.15 237.844L1355.83 236.808L1919.99 230.768H1919.99Z" fill="#D9DADB"/>
<path opacity="0.3" d="M1919.99 224.029V230.91L1350.01 236.95L1253.35 237.986V234.096L1919.99 224.029H1919.99Z" fill="#E8E9EA"/>
<path opacity="0.3" d="M1200.57 211.313H1172.48V231.076H1200.57V211.313Z" fill="#D1D1D1"/>
</g>
</svg>
