<svg width="418" height="61" viewBox="0 0 418 61" fill="none" xmlns="http://www.w3.org/2000/svg">
<path d="M185.892 7.00378H181.46V37.4625H185.892V7.00378Z" fill="#030405"/>
<path d="M244.804 6.92725H240.373V37.4562H244.804V6.92725Z" fill="#030405"/>
<path d="M100.778 12.2838H97.2271V6.97827H92.7968V28.4297H97.2271V16.7153H100.778V12.2838Z" fill="#030405"/>
<path d="M81.7839 19.9733C79.7993 19.9733 78.1906 18.3634 78.1906 16.38C78.1906 14.3966 79.7993 12.7879 81.7839 12.7879C83.7674 12.7879 85.376 14.3966 85.376 16.38C85.376 18.3634 83.7674 19.9733 81.7839 19.9733ZM90.1885 6.92893H83.8968V4.52887H79.4652V6.92893H73.176V11.3605H75.0657C74.018 12.7608 73.3893 14.4952 73.3893 16.38C73.3893 21.0187 77.1478 24.7759 81.7839 24.7759C86.4226 24.7759 90.1823 21.0187 90.1823 16.38C90.1823 14.4952 89.5524 12.7608 88.5034 11.3605H90.1885V6.92893Z" fill="#030405"/>
<path d="M390.187 12.2718H386.641V6.95276H382.209V24.2192H386.641V16.7034H390.187V12.2718Z" fill="#030405"/>
<path d="M371.222 19.9733C369.239 19.9733 367.629 18.3634 367.629 16.38C367.629 14.3966 369.239 12.7879 371.222 12.7879C373.204 12.7879 374.815 14.3966 374.815 16.38C374.815 18.3634 373.204 19.9733 371.222 19.9733ZM379.623 6.92893H373.332V4.52887H368.901V6.92893H362.614V11.3605H364.503C363.452 12.7608 362.824 14.4952 362.824 16.38C362.824 21.0187 366.583 24.7759 371.222 24.7759C375.857 24.7759 379.619 21.0187 379.619 16.38C379.619 14.4952 378.992 12.7608 377.938 11.3605H379.623V6.92893Z" fill="#030405"/>
<path d="M78.6792 33.0234V27.39H74.2476V35.7107L75.9907 37.4549H97.7638V33.0234H78.6792Z" fill="#030405"/>
<path d="M129.249 22.8241V18.3913H126.755V8.67028L125.012 6.92725H104.336V11.3588H122.325V18.3913H102.416V22.8241H113.683V26.2867H104.336V30.7171H122.325V37.5585H126.755V28.0285L125.012 26.2867H118.112V22.8241H129.249Z" fill="#030405"/>
<path d="M382.246 31.2079V37.6919H386.677V28.5219L384.932 26.7776H363.788V31.2079H382.246Z" fill="#030405"/>
<path d="M152.253 7.00774V23.426H137.232V11.3703H149.194V6.93994H132.806V10.5616H132.804V26.1145L134.548 27.8563H152.253V37.4664H156.685V7.00774H152.253Z" fill="#030405"/>
<path d="M328.645 27.5355V8.66905L326.899 6.92725H306.224V11.3588H324.214V27.5355H316.612V18.8351H312.18V27.5355H305.283V31.9658H331.169V27.5355H328.645Z" fill="#030405"/>
<path d="M415.567 27.4664V8.66905L413.822 6.92725H393.402V11.3588H411.135V27.4664H407.549V19.926H403.118V27.4664H399.881V19.926H395.45V27.4664H392.237V31.8955H418V27.4664H415.567Z" fill="#030405"/>
<path d="M268.679 7.00448V23.4228H253.657V11.346H264.877V6.91449H249.255V10.5583H249.227V26.1113L250.973 27.8531H268.679V37.4632H273.109V7.00448H268.679Z" fill="#030405"/>
<path d="M347.061 33.7673C345.135 33.7673 343.571 32.2055 343.571 30.28C343.571 28.3508 345.135 26.7915 347.061 26.7915C348.989 26.7915 350.554 28.3508 350.554 30.28C350.554 32.2055 348.989 33.7673 347.061 33.7673ZM359.934 21.0496H333.145V25.4774H340.478C339.492 26.826 338.908 28.4815 338.908 30.28C338.908 34.783 342.559 38.433 347.061 38.433C351.563 38.433 355.215 34.783 355.215 30.28C355.215 28.4815 354.629 26.826 353.642 25.4774H359.934V21.0496Z" fill="#030405"/>
<path d="M337.211 18.7825H357.887V14.9734H339.897V11.0547H357.807V6.90173H335.527V7.4737H335.467V17.0394L337.211 18.7825Z" fill="#030405"/>
<path d="M231.984 23.424H224.752V11.3473H231.984V23.424ZM233.185 6.933V6.91449H220.319V26.1113L222.063 27.8543H236.416V6.933H233.185Z" fill="#030405"/>
<path d="M196.985 12.4257H205.622V15.7244H196.985V12.4257Z" fill="#030405"/>
<path d="M211.472 6.91449V12.4246H208.276V15.7233H211.472V21.4184H215.903V6.91449H211.472Z" fill="#030405"/>
<path d="M206.746 10.2132V6.91449H190.645V19.0455L192.39 20.7873H206.728V17.4849H195.077V10.2132H206.746Z" fill="#030405"/>
<path d="M198.332 34.1524V32.1148H215.9V28.8161H215.887V26.8487H215.9V23.55H193.289V26.8487H210.606V28.8161H193.289V29.6765H193.273V35.7167L195.019 37.4585H216.42V34.1524H198.332Z" fill="#030405"/>
<path d="M170.104 11.3703H178.983V6.93994H160.783V11.3703H169.687L160.028 25.3762L163.46 28.6009L169.896 19.2681L176.345 28.6206L179.778 25.3983L170.104 11.3703Z" fill="#030405"/>
<path d="M285.666 23.6392C283.065 23.6392 280.957 20.9026 280.957 17.5312C280.957 14.156 283.065 11.4182 285.666 11.4182C288.268 11.4182 290.374 14.156 290.374 17.5312C290.374 20.9026 288.268 23.6392 285.666 23.6392ZM297.408 7.00145V14.4987H294.955C293.796 9.92048 290.08 6.57001 285.666 6.57001C280.322 6.57001 275.992 11.4774 275.992 17.5312C275.992 23.58 280.322 28.4874 285.666 28.4874C290.211 28.4874 294.012 24.9335 295.048 20.1506H297.408V37.4602H301.839V7.00145H297.408Z" fill="#030405"/>
<path d="M85.6535 55.9875H83.039L80.2974 49.7378L77.7864 52.8836V55.9875H75.4468V43.6938H77.7864V50.1544C78.0835 49.7168 78.3005 49.4136 78.4336 49.241L82.7431 43.6938H85.1124L82.0306 47.7371L85.6535 55.9875Z" fill="#030405"/>
<path d="M96.7279 54.404C97.7474 53.2428 98.2565 51.713 98.2565 49.8159C98.2565 48.0051 97.7659 46.5024 96.7846 45.2944C95.8046 44.09 94.4709 43.4897 92.7833 43.4897C91.1118 43.4897 89.7644 44.09 88.7413 45.2944C87.7181 46.5024 87.209 47.9977 87.209 49.7851C87.209 51.5897 87.6923 53.0973 88.6501 54.3202C89.614 55.5418 90.9552 56.1483 92.681 56.1483C94.3624 56.1483 95.7122 55.5714 96.7279 54.404ZM90.5065 53.2354C89.9962 52.4711 89.7422 51.3481 89.7422 49.8615C89.7422 46.8069 90.742 45.2783 92.7476 45.2783C93.7633 45.2783 94.5103 45.679 94.9911 46.4827C95.473 47.2827 95.7147 48.3909 95.7147 49.7962C95.7147 51.5343 95.425 52.7325 94.8394 53.3944C94.2576 54.0527 93.5439 54.3818 92.7007 54.3818C91.7491 54.3818 91.0156 53.9997 90.5065 53.2354Z" fill="#030405"/>
<path d="M109.243 50.5649C110.802 49.9683 111.583 48.8798 111.583 47.3007C111.583 46.2344 111.219 45.3666 110.479 44.6985C109.745 44.0279 108.595 43.6938 107.029 43.6938H101.395V55.9863H103.737V50.9347H107.029L109.044 55.9863H111.517L109.243 50.5649ZM103.737 45.4628H106.835C107.566 45.4628 108.134 45.6304 108.54 45.9632C108.944 46.2948 109.149 46.7312 109.149 47.2711C109.149 47.8628 108.943 48.3251 108.531 48.6591C108.118 48.9981 107.492 49.1646 106.646 49.1646H103.737V45.4628Z" fill="#030405"/>
<path d="M123.33 55.9875H114.892V43.6938H123.246V45.5306H117.235V48.8601H122.067V50.6389H117.235V54.0843H123.33V55.9875Z" fill="#030405"/>
<path d="M132.161 43.6938H129.279L124.971 55.9875H126.968L127.986 53.0673H132.981L134.017 55.9875H136.519L132.161 43.6938ZM128.566 51.286L130.459 45.8079L132.352 51.286H128.566Z" fill="#030405"/>
<path d="M149.085 55.9875C151.137 55.9875 152.718 55.3995 153.817 54.2309C154.927 53.0599 155.475 51.6065 155.475 49.8684C155.475 48.1254 154.94 46.6597 153.867 45.4751C152.794 44.2868 151.373 43.6938 149.604 43.6938H144.821V55.9875H149.085ZM147.229 45.443H149.454C150.501 45.443 151.343 45.8597 151.979 46.6942C152.618 47.5238 152.936 48.5433 152.936 49.7464C152.936 51.2108 152.571 52.3153 151.841 53.0599C151.113 53.8069 150.223 54.1792 149.177 54.1792H147.229V45.443Z" fill="#030405"/>
<path d="M158.607 43.6938H160.946V55.9876H158.607V43.6938Z" fill="#030405"/>
<path d="M174.641 49.6914V55.9683H173.604L172.894 54.3152C172.137 55.5405 170.968 56.147 169.381 56.147C167.613 56.147 166.292 55.5171 165.418 54.2499C164.548 52.9815 164.11 51.5084 164.11 49.8319C164.11 48.0642 164.597 46.5653 165.572 45.3338C166.545 44.1023 167.908 43.4897 169.655 43.4897C170.965 43.4897 172.04 43.8484 172.882 44.5683C173.725 45.287 174.259 46.1807 174.481 47.2469L172.446 47.5872C172.064 46.0907 171.153 45.3424 169.714 45.3424C168.794 45.3424 168.044 45.6937 167.466 46.4062C166.885 47.1101 166.593 48.1998 166.593 49.6704C166.593 52.7731 167.622 54.3239 169.678 54.3239C170.477 54.3239 171.138 54.0638 171.659 53.5436C172.184 53.0246 172.446 52.3343 172.446 51.4714H169.761V49.6914H174.641Z" fill="#030405"/>
<path d="M178.278 43.6938H180.618V55.9876H178.278V43.6938Z" fill="#030405"/>
<path d="M188.98 55.9875H186.468V45.5947H183.017V43.6938H192.436V45.5947H188.98V55.9875Z" fill="#030405"/>
<path d="M199.652 43.6938H196.769L192.457 55.9875H194.456L195.476 53.0673H200.468L201.506 55.9875H204.006L199.652 43.6938ZM196.054 51.286L197.947 45.8079L199.84 51.286H196.054Z" fill="#030405"/>
<path d="M214.533 55.9875H206.541V43.6938H209.003V53.9795H214.533V55.9875Z" fill="#030405"/>
<path d="M235.814 55.9875H233.425V45.2273L229.831 55.9875H228.603L224.989 45.2273V55.9875H223.075V43.6938H226.741L229.462 51.609L232.134 43.6938H235.814V55.9875Z" fill="#030405"/>
<path d="M248.074 55.9875H239.634V43.6938H247.988V45.5306H241.974V48.8601H246.81V50.6389H241.974V54.0843H248.074V55.9875Z" fill="#030405"/>
<path d="M255.276 55.9875C257.332 55.9875 258.91 55.3995 260.013 54.2309C261.119 53.0599 261.67 51.6065 261.67 49.8684C261.67 48.1254 261.131 46.6597 260.059 45.4751C258.99 44.2868 257.567 43.6938 255.8 43.6938H251.013V55.9875H255.276ZM253.424 45.443H255.647C256.695 45.443 257.539 45.8597 258.174 46.6942C258.809 47.5238 259.129 48.5433 259.129 49.7464C259.129 51.2108 258.764 52.3153 258.036 53.0599C257.305 53.8069 256.416 54.1792 255.371 54.1792H253.424V45.443Z" fill="#030405"/>
<path d="M264.797 43.6938H267.138V55.9876H264.797V43.6938Z" fill="#030405"/>
<path d="M276.805 43.6938H273.923L269.613 55.9875H271.609L272.63 53.0673H277.622L278.659 55.9875H281.16L276.805 43.6938ZM273.207 51.286L275.101 45.8079L276.996 51.286H273.207Z" fill="#030405"/>
<path d="M299.179 55.9875H296.838V50.65H291.882V55.9875H289.54V43.6938H291.882V48.7454H296.838V43.6938H299.179V55.9875Z" fill="#030405"/>
<path d="M302.993 43.6938H305.334V55.9876H302.993V43.6938Z" fill="#030405"/>
<path d="M319.03 49.6914V55.9683H317.991L317.278 54.3152C316.522 55.5405 315.353 56.147 313.767 56.147C311.998 56.147 310.678 55.5171 309.805 54.2499C308.934 52.9815 308.498 51.5084 308.498 49.8319C308.498 48.0642 308.984 46.5653 309.961 45.3338C310.93 44.1023 312.289 43.4897 314.042 43.4897C315.349 43.4897 316.426 43.8484 317.268 44.5683C318.113 45.287 318.644 46.1807 318.866 47.2469L316.831 47.5872C316.45 46.0907 315.54 45.3424 314.099 45.3424C313.179 45.3424 312.43 45.6937 311.85 46.4062C311.269 47.1101 310.979 48.1998 310.979 49.6704C310.979 52.7731 312.007 54.3239 314.063 54.3239C314.859 54.3239 315.52 54.0638 316.044 53.5436C316.568 53.0246 316.831 52.3343 316.831 51.4714H314.147V49.6914H319.03Z" fill="#030405"/>
<path d="M332.293 55.9875H329.956V50.65H324.995V55.9875H322.658V43.6938H324.995V48.7454H329.956V43.6938H332.293V55.9875Z" fill="#030405"/>
<path d="M340.62 53.011L342.896 52.5574C343.167 53.7716 344.215 54.3818 346.036 54.3818C346.864 54.3818 347.505 54.224 347.953 53.9109C348.399 53.5966 348.621 53.2107 348.621 52.7534C348.621 52.4193 348.521 52.1075 348.317 51.8227C348.117 51.538 347.678 51.3099 347.013 51.1484L344.531 50.5383C343.679 50.3287 343.054 50.0896 342.648 49.8196C342.239 49.5496 341.917 49.1724 341.672 48.6867C341.427 48.2048 341.307 47.6833 341.307 47.1335C341.307 46.0352 341.737 45.1538 342.599 44.4857C343.461 43.8225 344.566 43.4897 345.911 43.4897C347.026 43.4897 348.022 43.7214 348.902 44.1862C349.778 44.6447 350.339 45.303 350.583 46.1523L348.352 46.675C348.011 45.7431 347.213 45.2783 345.961 45.2783C345.227 45.2783 344.672 45.4226 344.288 45.711C343.904 45.9982 343.711 46.3656 343.711 46.8106C343.711 47.5144 344.316 48.0038 345.519 48.2836L347.729 48.8075C349.067 49.1243 349.963 49.594 350.419 50.2153C350.878 50.8341 351.107 51.5232 351.107 52.269C351.107 53.4832 350.624 54.4311 349.662 55.119C348.702 55.808 347.457 56.1483 345.932 56.1483C344.643 56.1483 343.515 55.8968 342.547 55.3914C341.578 54.8847 340.939 54.0909 340.62 53.011Z" fill="#030405"/>
<path d="M361.347 51.7068L363.516 51.9263C363.375 53.1627 362.872 54.1747 362.008 54.9673C361.141 55.7563 360.004 56.1483 358.598 56.1483C357.411 56.1483 356.448 55.8709 355.708 55.3088C354.973 54.7467 354.399 53.9836 354 53.0209C353.603 52.0569 353.403 50.9931 353.403 49.8221C353.403 47.9521 353.873 46.4321 354.811 45.2537C355.749 44.0777 357.039 43.4897 358.682 43.4897C359.969 43.4897 361.04 43.8644 361.897 44.6127C362.753 45.3659 363.293 46.4469 363.516 47.8423L361.347 48.0544C360.947 46.2029 360.065 45.2771 358.699 45.2771C357.827 45.2771 357.143 45.6629 356.661 46.4346C356.177 47.2038 355.934 48.3206 355.934 49.7838C355.934 51.2754 356.193 52.4009 356.713 53.159C357.233 53.9158 357.922 54.2955 358.775 54.2955C359.464 54.2955 360.043 54.0428 360.528 53.53C361.009 53.0184 361.284 52.4107 361.347 51.7068Z" fill="#030405"/>
<path d="M375.954 55.9875H373.614V50.65H368.655V55.9875H366.314V43.6938H368.655V48.7454H373.614V43.6938H375.954V55.9875Z" fill="#030405"/>
<path d="M388.636 54.404C389.657 53.2428 390.162 51.713 390.162 49.8159C390.162 48.0051 389.676 46.5024 388.698 45.2944C387.713 44.09 386.383 43.4897 384.695 43.4897C383.021 43.4897 381.673 44.09 380.649 45.2944C379.627 46.5024 379.122 47.9977 379.122 49.7851C379.122 51.5897 379.597 53.0973 380.559 54.3202C381.522 55.5418 382.862 56.1483 384.59 56.1483C386.27 56.1483 387.619 55.5714 388.636 54.404ZM382.416 53.2354C381.902 52.4711 381.652 51.3481 381.652 49.8615C381.652 46.8069 382.653 45.2783 384.657 45.2783C385.67 45.2783 386.42 45.679 386.903 46.4827C387.384 47.2827 387.625 48.3909 387.625 49.7962C387.625 51.5343 387.332 52.7325 386.749 53.3944C386.166 54.0527 385.454 54.3818 384.609 54.3818C383.655 54.3818 382.925 53.9997 382.416 53.2354Z" fill="#030405"/>
<path d="M402.141 54.404C403.158 53.2428 403.666 51.713 403.666 49.8159C403.666 48.0051 403.177 46.5024 402.197 45.2944C401.216 44.09 399.884 43.4897 398.196 43.4897C396.521 43.4897 395.174 44.09 394.153 45.2944C393.132 46.5024 392.619 47.9977 392.619 49.7851C392.619 51.5897 393.1 53.0973 394.06 54.3202C395.022 55.5418 396.364 56.1483 398.09 56.1483C399.77 56.1483 401.121 55.5714 402.141 54.404ZM395.916 53.2354C395.405 52.4711 395.151 51.3481 395.151 49.8615C395.151 46.8069 396.151 45.2783 398.158 45.2783C399.172 45.2783 399.919 45.679 400.404 46.4827C400.883 47.2827 401.125 48.3909 401.125 49.7962C401.125 51.5343 400.833 52.7325 400.249 53.3944C399.667 54.0527 398.952 54.3818 398.109 54.3818C397.158 54.3818 396.426 53.9997 395.916 53.2354Z" fill="#030405"/>
<path d="M414.792 55.9875H406.805V43.6938H409.267V53.9795H414.792V55.9875Z" fill="#030405"/>
<path d="M30.2652 39.678C25.0657 39.678 20.8511 35.4635 20.8511 30.2639C20.8511 25.0657 25.0657 20.8511 30.2652 20.8511C35.4622 20.8511 39.6768 25.0657 39.6768 30.2639C39.6768 35.4635 35.4622 39.678 30.2652 39.678ZM54.1006 35.016C51.8904 46.1633 42.0596 54.5665 30.2652 54.5665C16.8411 54.5665 5.96379 43.6855 5.96379 30.2639C5.96379 16.846 16.8411 5.96132 30.2652 5.96132C38.0756 5.96132 45.0243 9.64955 49.4731 15.3791L45.171 23.3226C42.5527 17.7139 36.8638 13.8222 30.2652 13.8222C21.1827 13.8222 13.8222 21.1839 13.8222 30.2639C13.8222 39.3464 21.1827 46.7093 30.2652 46.7093C36.5113 46.7093 41.9425 43.2245 44.7247 38.094H44.726L53.2476 22.355L56.8261 15.7477C55.6353 13.5745 54.1857 11.5615 52.5166 9.75556C46.9892 3.75603 39.0666 0 30.2652 0C13.5498 0 0 13.5498 0 30.2639C0 46.9793 13.5498 60.5291 30.2652 60.5291C45.1155 60.5291 57.4634 49.8342 60.0336 35.7248L54.1006 35.016Z" fill="#ED0C80"/>
</svg>
